<svg width="257" height="177" viewBox="0 0 257 177" fill="none" xmlns="http://www.w3.org/2000/svg">
    <path d="M0.843276 50.2372C-0.174737 42.0157 5.6651 34.5278 13.8869 33.5125L216.349 8.50957C224.571 7.49423 232.061 13.336 233.079 21.5574L247.088 134.693C248.106 142.915 242.266 150.403 234.044 151.418L31.5824 176.421C23.3605 177.436 15.8702 171.595 14.8522 163.373L0.843276 50.2372Z" fill="#F2BA7D"/>
    <path d="M11.7271 29.6013C11.3962 21.3237 17.8383 14.3459 26.116 14.016L229.954 5.89243C238.232 5.56253 245.211 12.0055 245.542 20.2831L250.095 134.192C250.426 142.47 243.984 149.448 235.706 149.777L31.8681 157.901C23.5904 158.231 16.6117 151.788 16.2808 143.51L11.7271 29.6013Z" fill="#F2A44F"/>
    <path d="M22.3057 14.9973C22.4626 6.71453 29.3044 0.127919 37.5871 0.285714L241.55 4.17143C249.833 4.32922 256.42 11.1717 256.263 19.4545L254.104 133.434C253.947 141.717 247.105 148.303 238.822 148.146L34.8595 144.26C26.5767 144.102 19.9894 137.26 20.1463 128.977L22.3057 14.9973Z" fill="#F18817"/>
    <path d="M36 73.8662L45 68.6701V79.0624L36 73.8662Z" fill="#D9D9D9"/>
    <path d="M55 66C55 64.3431 56.3431 63 58 63H80C81.6569 63 83 64.3431 83 66V84C83 85.6569 81.6569 87 80 87H58C56.3431 87 55 85.6569 55 84V66Z" fill="#D9D9D9"/>
    <line x1="65" y1="63" x2="65" y2="72" stroke="black"/>
    <line x1="64.5" y1="71.5" x2="55.5" y2="71.5" stroke="black"/>
    <line x1="55.5" y1="77.5" x2="67.5" y2="77.5" stroke="black"/>
    <line x1="68" y1="78" x2="68" y2="87" stroke="black"/>
    <line x1="75" y1="63" x2="75" y2="75" stroke="black"/>
    <line x1="75.5" y1="69.5" x2="82.5" y2="69.5" stroke="black"/>
    <line x1="83.5" y1="82.5" x2="74.5" y2="82.5" stroke="black"/>
    <line x1="75" y1="75" x2="75" y2="88" stroke="black"/>
</svg>
