<?xml version="1.0" encoding="UTF-8"?>
<svg xmlns="http://www.w3.org/2000/svg" viewBox="0 0 438.6 329.8">
    <defs>
        <style>
            .c {
            fill: #6f7fa9;
            }

            .c, .d, .e, .f, .g, .h, .i, .j, .k, .l, .m, .n, .o, .p, .q, .r, .s, .t, .u, .v, .w, .x, .y {
            stroke-width: 0px;
            }

            .d {
            fill: #f6f7fa;
            }

            .e {
            fill: #9ca6c3;
            }

            .f {
            fill: #ff5f42;
            }

            .g, .j {
            fill: #ddecff;
            }

            .g, .m, .z {
            mix-blend-mode: multiply;
            }

            .aa {
            isolation: isolate;
            }

            .h {
            fill: #1c83ff;
            }

            .i {
            fill: #d2e6ff;
            }

            .k {
            fill: #43588e;
            }

            .l {
            fill: #596b9b;
            }

            .m {
            fill: #bdc4d7;
            }

            .n {
            fill: #fff;
            }

            .o {
            fill: #7a89af;
            }

            .p {
            fill: #dee1eb;
            }

            .q {
            fill: #60a8ff;
            }

            .r {
            fill: #67acff;
            }

            .s {
            fill: #ff9d8c;
            }

            .t {
            fill: #d9dee8;
            }

            .u {
            fill: #8e9bbb;
            }

            .v {
            fill: #8593b6;
            }

            .w {
            fill: #6baeff;
            }

            .x {
            fill: #818fb3;
            }

            .y {
            fill: #223a7a;
            }
        </style>
    </defs>
    <g class="aa">
        <g id="a" data-name="BACKGROUND">
            <path class="j" d="m75.2,312.4S20.5,273.5,4.8,207.3C-10.9,141.1,13.1,60.8,58.6,20.3c45.5-40.6,127.4-13.2,163.9,20.7l36.4,33.9s34.8,19,80.3,17.4c45.5-1.7,86.1,60.4,96.8,109.2,10.8,48.8-14.9,113.4-14.9,113.4l-345.9-2.5Z"/>
            <path class="g" d="m50.3,322.3S12.3,301.6,2.3,253.6c-9.9-48,33.1-91.9,37.2-115.9,4.1-24-5-53.8,33.1-77,38.1-23.2,105.9-14.9,131.6-20.7,25.7-5.8,55.4-45.5,106.8-36.4,51.3,9.1,101,36.4,103.4,96,2.5,59.6-16.6,61.2,2.5,93.5,19,32.3,26.5,54.6,17.4,87.7-9.1,33.1-28.1,42.2-28.1,42.2l-355.9-.8Z"/>
            <path class="g" d="m129.8,311.6c-2.4-2.5-37.1-72,1.6-135.7,38.7-63.7,135.8-56.3,174.5-31.4,38.7,24.8,57.6,57.1,61.6,91,3.9,33.9-22.1,86.9-22.1,86.9l-215.5-10.8Z"/>
        </g>
        <g id="b" data-name="OBJECTS">
            <g>
                <g>
                    <rect class="q" x="352.5" y="162.3" width="54.6" height="32.3" rx="5" ry="5"/>
                    <polygon class="q" points="379.9 207.2 386.9 190.4 372.8 190.4 379.9 207.2"/>
                </g>
                <g>
                    <g>
                        <polygon class="y" points="379.7 172.9 392.5 172.9 392.5 174.7 398.7 171.1 392.5 167.5 392.5 169.4 379.7 169.4 379.7 172.9"/>
                        <polygon class="n" points="398.7 180.2 385.9 180.2 385.9 178.3 379.7 182 385.9 185.6 385.9 183.7 398.7 183.7 398.7 180.2"/>
                    </g>
                    <g>
                        <path class="y" d="m371.8,183.5l-.6.2s-1.9-2.2-2.9-4.5c-1-2.4-1-5.2-1-5.2l.4-.2-2.7-6.5c-.5.4-.9.9-1.3,1.5-1.5,2.6-1.4,6.5.2,10.4s3.2,7.3,6.2,9.5c1.8,1.3,3.3,1.5,4.5,1.3l-2.7-6.5Z"/>
                        <path class="y" d="m373.8,182.7l-.8.3,2.8,6.6c.3-.1.6-.2.8-.4.7-.4,1-1.2.7-2l-1.4-3.6c-.3-.8-1.2-1.2-2-.9Z"/>
                        <path class="y" d="m367.2,166.2c-.3.1-.7.3-1.1.5l2.8,6.6.9-.4c.8-.3,1.2-1.3.9-2.1l-1.5-3.7c-.3-.8-1.2-1.2-2-.9Z"/>
                    </g>
                </g>
            </g>
            <path class="h" d="m116.9,300.4v-74.5s-.8-20.1,9.7-25.9c10.6-5.8,55-2.7,55-2.7v103h-64.8Z"/>
            <g>
                <path class="s" d="m195.6,127.6s-2.7,22.6-3.7,24.4l-1,1.9-5.2,3.5s9.9,14.1,22.1,16.3c12.2,2.3,11.2-5,11.2-5l-1.9-3.9,2.5-21.5s-22.1-10.1-24-15.7Z"/>
                <path class="n" d="m179.2,159.3l8.1-3.5s5.2,8.5,17.2,13.4,12.2,2.1,12.8,0c.6-2.1-.2-4.3-.2-4.3l.9-7.2,4.8,1.6,16.7,134.7-42.8,2.1-17.4-136.8Z"/>
                <path class="y" d="m218.8,157.8s2.9,6.7,5.6,22.4,5.2,42.2,5.8,60.4,1,59.8,1,59.8h54c.6,0,4.3-20.5,4.3-20.5,0,0-23.6-20.2-24.8-23.5-.8-2.2-.4-43.1-3.9-61.9-3.5-18.8-8.1-22.6-17.6-27.3-9.8-4.8-24.4-9.4-24.4-9.4Z"/>
                <path class="v" d="m246.9,276.7c-.3,0-.5-.2-.5-.5,0-1.5-.3-22.5-.5-42.8-.3-20.3-.5-41.3-.5-42.8s.2-.5.5-.5.5.2.5.5c0,1.5.3,22.5.5,42.8.3,20.3.5,41.3.5,42.8s-.2.5-.5.5Z"/>
                <path class="y" d="m139.3,271.6l-.4,28.8h62.9s2.7-24.4,1.7-26.7c-1-2.3-64.1-2.1-64.1-2.1Z"/>
                <g class="z">
                    <path class="u" d="m209.3,151.4c2.6,2.1,6.1,3.7,8.8,4.7l1.5-12.8s-16.6-7.6-22.3-13.3c1.2,6.4,4.1,15,12,21.4Z"/>
                </g>
                <path class="s" d="m239,85.6s4.3,7.4,5.2,16.6c.8,9.1,0,32.5-7.4,42.4-7.4,9.9-23,7-30,1-6.5-5.5-12.8-11.6-14.5-23.6-1.7-12,3.5-34.8,18.2-39.5,14.7-4.8,28.6,3.1,28.6,3.1Z"/>
                <g>
                    <path class="s" d="m257.7,287.4s-.7,0-1.8,0c-.3,0-.5,0-.8,0-1.1,0-2.4,0-3.7-.1-.3,0-.6,0-.9,0-1.3,0-2.4.1-3.4,0h0c-.2,0-.5,0-.8,0-.1,0-.2,0-.3,0-.6-.1-.7-.2-1.4-.5-.8-.4-12.2-2.9-21.5-2.9-9.2,0-17.5.7-18.9-.5-1.4-1.1-2.2-12.8,5.7-13.5l9.7,3.7s22.1-2.6,30.3,3.4c8.1,6,7.9,10.4,7.9,10.4Z"/>
                    <path class="y" d="m247,287.3c-.2,0-.5,0-.8,0-.2-.3-.6-.9-.8-1.1-2.5-2.5-8.5-4.2-10.7-4.7-.2,0-.3-.2-.3-.5,0-.2.2-.3.5-.3,3.2.8,10,2.7,11.9,6,0,0,.2.4.3.6Z"/>
                    <path class="y" d="m251.3,287.3c-.3,0-.6,0-.9,0-2.7-5-7.2-6.4-12.7-8.2h-.3c-.2-.2-.3-.4-.2-.6,0-.2.3-.3.5-.2h.3c5.8,2,10.5,3.5,13.4,9Z"/>
                    <path class="y" d="m255.9,287.4c-.3,0-.6,0-.8,0-1.7-3.5-7.1-9.3-14.4-10.7-.2,0-.3-.2-.3-.4,0-.2.2-.3.4-.3,7.5,1.4,13.5,7.5,15.1,11.4Z"/>
                </g>
                <path class="y" d="m197.2,111.8s4.6-2.2,7.8-8.3c3.2-6.1,2.8-11.6,2.8-11.6,0,0,5.8-.9,14.5,1.7,8.7,2.6,19,6.1,27.7,1.1,8.7-5,8.7-12.9,4.4-16.2-4.8-3.7-14.2-1.4-14.2-1.4,0,0,3.6-3.5,1.7-5.6-2-2.1-9.1.6-9.1.6,0,0-8.7-6.9-25.1-6.1-16.4.8-24.3,12.3-25.2,25.1-.9,12.8,3.7,25.7,3.7,25.7l11.1-5Z"/>
                <g class="z">
                    <path class="u" d="m230.6,114.9c-.9,2.3-.9,5-1.1,7.4-.2,1.9-.5,4.1,1.2,5.4.8.6,4.8,2.3,2.7,3.6-.8.5-2.1.4-2.9.3-.6,0-1.2,0-1.8,0-.6,0-1.3-.2-1.9-.2-.4,0-.5.5-.2.7,1,.7,2.6.9,3.8.9,1.2,0,2,0,3.1-.6.7-.3,1.3-.8,1.4-1.6.1-.9-.6-1.7-1.2-2.2-.8-.6-1.7-.9-2.5-1.4-1.1-.8-1-2.1-.9-3.3.2-2.9.9-5.8,1.1-8.8,0-.4-.6-.4-.7,0h0Z"/>
                </g>
                <path class="y" d="m239.1,121.8c-.3,1.7-1.6,3-2.8,2.8-1.3-.2-2-1.8-1.7-3.6.3-1.7,1.6-3,2.8-2.8,1.3.2,2,1.8,1.7,3.6Z"/>
                <path class="y" d="m223.2,120.4c-.3,1.9-1.6,3.2-3,3s-2.2-1.9-1.9-3.8c.3-1.9,1.6-3.2,3-3s2.2,1.9,1.9,3.8Z"/>
                <path class="y" d="m235.4,114.6c1,.2,1.9,0,2.9,0,.2,0,.5,0,.7,0,.2,0-.3,0,0,0,0,0,0,0,.1,0,.1,0,.2,0,.4,0,.2,0,.4.1.6.2.2,0,.4,0,.6,0,.1,0,.2,0,.3,0,0,0-.1,0-.2,0,0,0,.4,0,.4,0,.6-.1.9-.8.7-1.3,0-.2-.1-.3-.2-.4,0,0,0-.1-.1-.2,0,0,0,0,.1.1,0,0,0-.1-.1-.2,0,0-.1-.2-.2-.2,0,0-.2-.1-.2-.2-.3-.2-.6-.3-.9-.4-.6-.1-1.2-.2-1.8-.2-.6,0-1.2,0-1.8.1-.5,0-1.1.2-1.5.6-.3.2-.5.6-.5,1,0,.4.3.7.7.8h0Z"/>
                <path class="y" d="m224.3,111.9c-.1,0-.3-.1-.4-.2-.1,0-.4-.2-.2,0,0,0-.2,0-.3-.1-.4-.2-.8-.3-1.2-.4-.9-.2-1.9-.3-2.9-.2-1,.1-2,.4-2.9.9-.1,0-.3.2-.4.3,0,0-.1.2-.2.3,0,0,0,0,0,0-.3.2-.4.5-.4.8,0,.3.2.6.4.7.3.2.7,0,1,0h-.5c.3,0,.5,0,.8,0,0,0,.3,0,.1,0-.2,0,.3,0,.3,0,0,0,.4,0,0,0,0,0,.1,0,.2,0,.2,0,.3,0,.5,0,.7,0,1.4,0,2-.1.6,0,1.3,0,1.9,0,.3,0,.5,0,.8,0,.2,0,0,0,0,0,0,0,.1,0,.2,0,.1,0,.2,0,.3.1.4.2,1-.2,1.1-.6.2-.4,0-.9-.4-1.2h0Z"/>
                <path class="y" d="m229.3,140.6c.9-1.9,2.7-3.3,4.7-4.2-1.7-.2-9.9-.9-12,.2-2.3,1.3.4,6.6,5.2,6.9.5,0,1,0,1.4,0,0-1,.3-1.9.7-2.8Z"/>
                <path class="p" d="m191.4,129.5s.8,3.2,5.6,6.9c4.8,3.7,11.7,6.4,11.7,6.4l.6-2.4s-7.1-3.1-10.4-6.5c-3.3-3.4-3.7-5.3-3.7-5.3l-3.6.8Z"/>
                <path class="y" d="m210.1,138.7c3.8-.2,6,2.8,6.2,4.8.3,2-1.6,4.2-5.9,2.2-5.3-2.4-4.2-6.9-.4-7Z"/>
                <path class="p" d="m194.4,105.8s1.7-11.9,9.6-20c15.2-15.4,28.1-14.5,28.1-14.5,0,0-.1-2.2-5-3.8-4.6-1.6-6.6-.7-6.6-.7,0,0-12.5,1-23.1,12.7-10.6,11.7-11.7,26.6-11.7,26.6l8.6-.3Z"/>
                <g>
                    <path class="n" d="m193.3,104.4c-10-1.7-15.5,6.1-15.9,14-.4,7.9,5.3,13.8,12.9,13.2,17.2-1.3,15.2-25.1,3-27.2Z"/>
                    <path class="x" d="m188.3,123.9c-2.6,0-4.9-1.3-6.1-3.6-1.4-2.5-1.2-5.6.3-7.8.1-.2.3-.2.5,0,.2.1.2.4,0,.5-1.4,2-1.5,4.8-.3,7,1.2,2.1,3.2,3.3,5.7,3.3,2.3,0,4.2-1.1,5.4-2.9,1.4-2.1,1.7-5,.8-7.3-.9-2.4-3.3-4-5.6-3.7-.2,0-.4-.1-.4-.3,0-.2.1-.4.3-.4,2.6-.3,5.4,1.4,6.4,4.1,1,2.6.6,5.7-.9,8-1.4,2-3.5,3.2-6,3.3,0,0-.1,0-.2,0Z"/>
                </g>
                <path class="y" d="m181.1,156.4s-30.2,7.4-40.8,19.4-15.5,71.2-15.7,82.1,7.4,15.5,12,18.6c4.6,3.1,24.6,8.7,40.8,9.5,16.1.8,31.4,0,31.4,0,0,0,0-3.5,2.4-8.7,2.3-4.8,5.2-5.8,5.2-5.8l-13.9-5s-2.4-43.5-6.2-64.6c-4.3-24.2-15.3-45.7-15.3-45.7Z"/>
                <path class="v" d="m231.2,259.7c0,0-.1,0-.2,0-.3-.1-.4-.4-.3-.7,2.8-6.4,5.8-18.9,7.4-27.7v-.7c.6-2.6,1.3-5.8,0-8-.6-1.1-2.1-3.6-3.4-6-1.4-2.5-2.8-4.8-3.1-5.5-.7-1.4,1.6-5,4.9-9.9.9-1.3,1.7-2.5,2.1-3.3,1.2-2,.4-3.9-.5-6.1l-.3-.7c-.8-2-1.8-4.1-2.7-6-.4-.8-.7-1.6-1.1-2.4-.5-1.1-1-2.2-1.5-3.3-2.9-6.5-5.9-13.3-9.8-19.8-.1-.2,0-.5.2-.7.2-.1.5,0,.7.2,3.9,6.6,6.9,13.3,9.9,19.9.5,1.1,1,2.2,1.5,3.3.4.8.7,1.6,1.1,2.4.9,2,1.9,4,2.7,6.1l.3.7c.9,2.2,1.9,4.5.5,7-.5.8-1.3,2-2.2,3.3-1.7,2.6-5.3,8-4.8,8.9.4.7,1.7,3,3.1,5.4,1.4,2.4,2.8,4.8,3.4,6,1.4,2.5.8,6,.2,8.7v.7c-.7,3.2-3.9,19.6-7.6,27.9,0,.2-.3.3-.5.3Z"/>
                <path class="v" d="m201.7,261.5c-.1,0-.3,0-.4-.1-2.4-2.4-13.7-22-14.5-25.7-.5-2,.7-7.1,1.8-12.1.9-3.8,1.8-7.8,1.5-8.9-.4-1.6-3.3-4-6.1-6.3-3.4-2.8-6.9-5.6-7.6-8.2-.8-2.9-.1-21.3.3-33.4.2-4.4.3-7.8.3-9,0-.3.2-.5.5-.5h0c.3,0,.5.2.5.5,0,1.2-.1,4.7-.3,9.1-.4,11.3-1.1,30.3-.4,33.1.6,2.3,4.1,5.1,7.2,7.7,3.1,2.5,6,4.9,6.4,6.8.3,1.3-.5,5-1.5,9.3-1,4.6-2.2,9.9-1.8,11.7.8,3.6,12,22.9,14.3,25.2.2.2.2.5,0,.7,0,0-.2.1-.4.1Z"/>
                <path class="v" d="m161,252.9s0,0,0,0c-.3,0-.5-.3-.4-.6.4-2.6,6.1-54.4,6.4-58.4,0-.3.3-.5.5-.5.3,0,.5.3.5.5-.3,4-6,55.8-6.4,58.4,0,.2-.2.4-.5.4Z"/>
                <path class="v" d="m202.2,267c0,0-.1,0-.2,0-1.3-.5-6.9-2.4-14-4.8-14.4-4.8-34-11.5-37.8-13.4-.2-.1-.3-.4-.2-.7.1-.2.4-.3.7-.2,3.7,1.9,24.1,8.8,37.6,13.4,7.1,2.4,12.8,4.3,14.1,4.8.3.1.4.4.3.7,0,.2-.3.3-.5.3Z"/>
                <path class="v" d="m195.3,287.6c-12.6,0-37.1-2.3-55.7-8.9-.3,0-.4-.4-.3-.6,0-.3.4-.4.6-.3,23.5,8.3,56.4,9.7,62.5,8.4.3,0,.5.1.6.4,0,.3-.1.5-.4.6-1.3.3-3.9.5-7.3.5Z"/>
            </g>
            <g>
                <g>
                    <g>
                        <path class="w" d="m50.7,163.4c3.9,3.5,8.9,5.7,12.3,9.7,1.4,1.6,2.6,3.2,3.8,4.9.9,1.2,3.4,3.2,3.8,4.7.2.7.1-.2,0-.9,0,0,0,0,0,0-.3-3-.6-6.1-.7-9.2-.1-3.1,0-6.1-.1-9.2-.3-4.3-1.6-8.5-5.1-11.2-1.7-1.3-3.9-2.1-5.5-3.6-1.5-1.4-.9-3,0-4.5.8-1.5,1.8-2.9,2.2-4.5.4-1.9-.3-3.9-1.3-5.5-2-3.4-6.6-7.3-10.9-6.8-3.6.4-4,4.6-3.9,7.5,0,2.8.3,5.6.4,8.4,0,2.9-.5,5.7-.5,8.6,0,4.9,2.2,8.6,5.8,11.8Z"/>
                        <path class="w" d="m87.1,208.2c1.1-2.6,2.3-5,3.9-7.4,2.1-3.3,4.5-6.4,5.9-10.1,1.4-3.7,1.2-7.7,1.4-11.6.1-2.9,1-5.7.7-8.6-.1-1.4-.9-3.6-2.7-3.4-1.4.2-2.2,1.9-2.8,3-.9,1.9-1.6,4-2.3,6-.3.8-.5,1.6-.9,2.4-.2.4-.8,1.5-1.4,1.4-1-.3,0-4.4,0-5.1.8-3.7,1.9-7.1,2.1-10.9.2-5.5-.2-12.1-5.6-15.1-1.4-.8-3.2-1.3-4.5,0-1.3,1.2-1.7,3.2-1.9,4.8-.6,5.1.6,9.9,2.2,14.7,1.3,4,2.9,8,3.1,12.3.1,4.1-2,7.7-3,11.5-1.6,6.1-1.3,9.4-1.3,11.4,0,2.5,0,4.9.3,7.4.2,2.3.4,4.6.6,6.8,0,.5.1.9.2,1.4-.9-2.1-1.2-4.5-1.9-6.6-1.3-3.8-2.8-7.4-4-11.2-1-3.1-2-6.3-3.3-9.3-1.3-2.8-2.8-5.8-5.2-7.9-1.4-1.3-3.2-2-5.1-2-1.2,0-2.3.4-3.5.7-1.4.4-2.6.2-3.7-.7-3.9-3-5-8.3-7.9-12-2.1-2.8-7.2-7.6-10.9-4.5-2,1.6-2.5,4.8-2.4,7.2.1,3,1.4,5.8,3,8.3,1.7,2.7,3.8,5.1,5.4,7.8.9,1.6,1,3.2.9,5-.1,1.7-.3,3.4.3,5.1,1.8,5,7.3,4.3,11.6,4.4,3,0,6.2.5,9.1,1.5,3.3,1.1,5.4,3.3,6.6,6.5.9,2.4,1.3,5,2.9,7.1.8.9,1.8,1.6,2.9,2.1,1.7.7,6.8,1.1,6.8.6.1-1.6.9-3.2,1.3-4.7.9-2.8,1.9-5.5,3-8.2Z"/>
                        <path class="w" d="m110.8,207.2c-.4-2.9-.4-6-1.7-8.7,0-.2-.4-.2-.5-.1-1,.5-1,2.1-1.1,3.1-.1,1.6,0,3.2-.2,4.8-.3,2.8-1,5.7-2,8.3-1.1,3-3.2,4.7-6.2,5.6-1.9.6-3.8,1.1-5.4,2.4-1.4,1.1-2.4,2.7-3.2,4.4-2,4.5-3,9.5-3.9,14.4-.6,3.2-1.1,6.5-1.9,9.7-.8,3.2-1.6,6.4-2.1,9.7,0,.2-.2.3-.2.5-.2.5.6.8.8.3,3.1-4.8,6.9-9.1,12.1-11.7,2.3-1.2,5.4-1.4,7.4-3.3,1.5-1.4,1.7-3.6,1.5-5.5-.3-2.5-1.5-4.6-2.8-6.8-.7-1.2-1.5-2.5-1.2-3.9.3-1.4,1.4-2.4,2.5-3.1,2.1-1.3,4.7-1.9,6.4-3.9,1.6-1.8,2.5-4,2.7-6.4.2-3.2-.3-6.6-.8-9.8Z"/>
                        <path class="w" d="m68.5,223.7c-2.7-3.5-6.1-6.6-9.8-9.1-2-1.3-6.7-3.9-7.6,0-.6,2.3,1.7,4.5,3.1,6,2.2,2.1,4.8,4,6.6,6.5-2.3.7-4.7.9-6.7,2.5-2.4,1.9-3.4,5.5-1.1,7.8,1.1,1.1,2.7,1.8,4.1,2.5,1.9.9,3.7,1.7,5.6,2.5,4.1,1.7,8.3,3.5,11.8,6.3,3.6,2.9,6.9,7.7,7.2,12.4,0,.4-.1,0,.1-.2.1.1.6-.1.6-.4,0-6.9-1.3-13.5-4.2-19.9-2.6-5.9-5.9-11.8-9.9-16.9Z"/>
                    </g>
                    <path class="k" d="m59,159.2c1.5,3.1,3.1,6.2,4.8,9.3,1.6,2.9,3.2,5.9,4.4,9,1.5,3.9,3,7.7,4.6,11.5,1.6,4,3.1,8.1,4.3,12.2,2.3,8.1,4,16.4,4.8,24.8.4,4.3.6,8.5.5,12.8,0,3.3-.5,6.7-.8,10-.3,3.5-.6,7-.3,10.4.2,2.9.7,6.4,3,8.4.4.4,1.1-.1.8-.6-2.7-5.5-2.5-11.5-2-17.4.3-3.3.7-6.6.8-9.9.1-4.2,0-8.4-.4-12.6-.8-8.2-2.4-16.3-4.5-24.3-1.1-4.1-2.4-8.1-4-12-1.6-3.9-3.4-7.8-4.9-11.7-2.7-7.2-6.9-13.5-10.6-20.2-.2-.3-.7,0-.5.3h0Z"/>
                    <path class="k" d="m82.1,217.8c.4-5.2.9-10.2,2.7-15.2.8-2.3,1.8-4.6,2.6-6.9.7-1.9,1.6-4.6,1.1-6.6,0-.2-.4-.2-.5,0-.3,1.2-.3,2.5-.5,3.7-.2,1.2-.6,2.3-.9,3.4-.8,2.4-1.8,4.7-2.7,7.1-1.7,4.6-2.6,9.7-2.2,14.6,0,.2.3.2.4,0h0Z"/>
                    <path class="k" d="m51.8,187.8c2.1,5,8.3,5.3,12.8,6.4,3.2.8,5.6,3,7.3,5.8,1.9,3.1,3.2,6.7,4.2,10.1,0,0,0,0,0,0-1.3-6-3.1-13.2-9.3-16-5-2.2-11.5-1.1-14.7-6.5-.2-.3-.6,0-.5.2h0Z"/>
                    <path class="k" d="m78.8,217c.2.3.5.7.7,1,.1.2.3.3.4.4.2.1.4.3.6.3,0,0,.2-.1.1-.2-.1-.2-.3-.3-.4-.4-.1-.1-.3-.3-.4-.4-.3-.3-.6-.6-.8-.9,0,0-.2,0-.1,0h0Z"/>
                    <path class="k" d="m65.8,232.9c3.6,2.9,6.9,6.4,9.5,10.2,1.3,1.8,2.4,3.7,3.5,5.7,1.1,2.1,1.9,4.4,2.8,6.6,0,.2.4.2.4,0-.5-4.7-3.5-8.7-5.9-12.7-1.2-2-2.8-3.7-4.4-5.4-1.7-1.8-3.5-3.4-5.5-4.8-.2-.2-.6.2-.3.4h0Z"/>
                    <path class="k" d="m94.3,227.3c-1.7,1-1.8,3.7-1.8,5.4,0,3.3.8,6.5-.7,9.6-1.3,2.9-3.4,5.3-5.1,7.9-1.6,2.5-3.1,5.7-3.1,8.7,0,.2.3.3.3,0,.6-1.4.9-2.9,1.3-4.3.5-1.6,1.2-3.1,2.1-4.5,1.6-2.5,3.6-4.7,4.9-7.4,1.4-2.8,1.2-5.6,1.1-8.6,0-1.9-.3-5.1,1.3-6.5.2-.2,0-.6-.4-.5h0Z"/>
                </g>
                <path class="n" d="m82.8,259.3c-6.9,0-20.1-.2-20.1-.2l3.3,24.3c.7,5.5,5.4,9.5,10.9,9.5h11.9c5.5,0,10.2-4.1,10.9-9.5l3.3-24.3s-13.2,0-20.1.2Z"/>
            </g>
            <g>
                <g>
                    <polygon class="d" points="417.9 214.8 378.3 293.1 263 293.9 298.6 213.6 417.9 214.8"/>
                    <path class="t" d="m186.5,293.4v-6.3h74.7l34.3-75.3h119.4l3,2.9h-116.6l-35.7,78.6s-79.1-.1-79.1,0Z"/>
                    <path class="t" d="m358,258c-1.3,3.9-8.4,6.9-15.8,6.7s-12.4-3.5-11.1-7.4c1.3-3.9,8.4-6.9,15.8-6.7,7.4.2,12.4,3.5,11.1,7.4Z"/>
                </g>
                <path class="n" d="m265.6,293.9c0,0-.1,0-.2,0-.3-.1-.4-.4-.2-.7l35.8-78.9h116.9c.3,0,.5.2.5.5s-.2.5-.5.5h-116.3l-35.6,78.3c0,.2-.3.3-.5.3Z"/>
            </g>
            <g>
                <g>
                    <rect class="l" x="44.1" y="299.4" width="137.2" height="30.4"/>
                    <rect class="o" x="180.5" y="299.4" width="246.8" height="30.4"/>
                </g>
                <polygon class="m" points="181.3 299.4 180.5 299.4 44.1 299.4 44.1 305 180.5 305 181.3 305 427.3 305 427.3 299.4 181.3 299.4"/>
                <rect class="c" x="37.5" y="293.4" width="149.8" height="7.4"/>
                <rect class="e" x="186.5" y="293.4" width="246.8" height="7.4"/>
            </g>
            <g>
                <rect class="n" x="92.8" y="98.8" width="59.3" height="35" rx="5.4" ry="5.4"/>
                <polygon class="n" points="165.9 116.3 147.7 108.6 147.7 124 165.9 116.3"/>
                <g>
                    <circle class="y" cx="111" cy="116.3" r="3.3"/>
                    <circle class="y" cx="122.5" cy="116.3" r="3.3"/>
                    <circle class="y" cx="133.9" cy="116.3" r="3.3"/>
                </g>
            </g>
            <g>
                <path class="q" d="m393.2,24.4h-111.8c-7.2,0-13,5.8-13,13v53c0,7.2,5.8,13,13,13h10c.3,4.8-.4,12-4.4,21.1,12.9-6,20.4-14.9,24.2-21.1h82c7.2,0,13-5.8,13-13v-53c0-7.2-5.8-13-13-13Z"/>
                <path class="n" d="m345.5,49.7h-55.4c-1.5,0-2.8-1.2-2.8-2.8h0c0-1.5,1.2-2.8,2.8-2.8h55.4c1.5,0,2.8,1.2,2.8,2.8h0c0,1.5-1.2,2.8-2.8,2.8Z"/>
                <path class="i" d="m385.3,65.8h-96.3c-.9,0-1.7-.8-1.7-1.7h0c0-.9.8-1.7,1.7-1.7h96.3c.9,0,1.7.8,1.7,1.7h0c0,.9-.8,1.7-1.7,1.7Z"/>
                <path class="i" d="m385.3,75.1h-96.3c-.9,0-1.7-.8-1.7-1.7h0c0-.9.8-1.7,1.7-1.7h96.3c.9,0,1.7.8,1.7,1.7h0c0,.9-.8,1.7-1.7,1.7Z"/>
                <path class="i" d="m364.3,85.1h-75.3c-.9,0-1.7-.8-1.7-1.7h0c0-.9.8-1.7,1.7-1.7h75.3c.9,0,1.7.8,1.7,1.7h0c0,.9-.8,1.7-1.7,1.7Z"/>
                <path class="n" d="m384.5,49.7h-26.5c-1.5,0-2.8-1.2-2.8-2.8h0c0-1.5,1.2-2.8,2.8-2.8h26.5c1.5,0,2.8,1.2,2.8,2.8h0c0,1.5-1.2,2.8-2.8,2.8Z"/>
            </g>
            <g>
                <rect class="n" x="285.8" y="147.1" width="34" height="24.5" rx="2" ry="2"/>
                <g>
                    <path class="c" d="m303,163.1c-.2,0-.3,0-.5-.2l-16.3-13.5c-.3-.3-.4-.7-.1-1.1.3-.3.7-.4,1.1-.1l15.9,13.1,15.5-13.4c.3-.3.8-.2,1.1,0,.3.3.2.8,0,1.1l-15.9,13.9c-.1.1-.3.2-.5.2Z"/>
                    <path class="c" d="m286.7,171.1c-.2,0-.4,0-.5-.2-.3-.3-.3-.8,0-1.1l11.4-12c.3-.3.8-.3,1.1,0,.3.3.3.8,0,1.1l-11.4,12c-.1.2-.3.2-.5.2Z"/>
                    <path class="c" d="m319,170.7c-.2,0-.4,0-.5-.2l-11.4-11.4c-.3-.3-.3-.8,0-1.1.3-.3.8-.3,1.1,0l11.4,11.4c.3.3.3.8,0,1.1-.1.1-.3.2-.5.2Z"/>
                </g>
                <g>
                    <circle class="f" cx="321.4" cy="146.4" r="10"/>
                    <g>
                        <path class="n" d="m314.8,148.6c0-1,.6-1.7,1.5-2.1h0c-.9-.4-1.2-1.1-1.2-1.8,0-1.2,1-2.1,2.4-2.1s2.3.9,2.3,1.9-.3,1.4-1.3,1.8h0c1,.4,1.6,1.1,1.6,2.1,0,1.4-1.2,2.3-2.7,2.3s-2.6-1-2.6-2.1Zm4.2,0c0-.9-.7-1.4-1.7-1.7-.9.3-1.4.9-1.4,1.6,0,.8.6,1.5,1.6,1.5s1.6-.6,1.6-1.4Zm-2.9-3.9c0,.8.6,1.2,1.5,1.4.7-.2,1.2-.7,1.2-1.4s-.4-1.3-1.3-1.3-1.4.6-1.4,1.2Z"/>
                        <path class="n" d="m325.7,143.7h-3l-.3,2c.2,0,.3,0,.6,0,.6,0,1.2.1,1.7.4.6.3,1.1,1,1.1,2,0,1.5-1.2,2.7-2.9,2.7s-1.6-.2-1.9-.5l.3-.8c.3.2,1,.4,1.7.4s1.8-.6,1.8-1.7c0-1-.7-1.7-2.2-1.7s-.8,0-1.1,0l.5-3.7h3.7v.9Z"/>
                    </g>
                </g>
            </g>
            <g>
                <rect class="y" x="359.6" y="125.5" width="66.6" height="17.2" rx="4" ry="4"/>
                <path class="n" d="m367.8,138.6c-.3,0-.5,0-.6-.3-.2-.2-.2-.4-.2-.7l.3-2.2c0,0,0,0,0-.1,0,0,0,0-.1,0l-1.8,1.3c-.2.2-.5.2-.7.2-.2,0-.4-.2-.6-.4-.2-.3-.2-.6,0-.8s.3-.4.5-.5l2.1-.9c0,0,0,0,0,0s0,0,0,0l-2.1-.9c-.3-.1-.4-.3-.5-.5,0-.2,0-.5,0-.7.1-.2.3-.4.6-.4.2,0,.5,0,.7.2l1.8,1.4c0,0,.1,0,.1,0,0,0,0,0,0-.1l-.3-2.2c0-.3,0-.5.2-.7.2-.2.4-.3.7-.3s.5,0,.6.3c.2.2.2.4.2.7l-.3,2.2c0,0,0,0,0,.1,0,0,0,0,.1,0l1.8-1.3c.2-.2.5-.2.7-.2.3,0,.4.2.6.4.2.3.2.6,0,.8-.1.2-.3.4-.5.5l-2.1.9c0,0,0,0,0,0s0,0,0,0l2.1.9c.3.1.4.3.5.5,0,.2,0,.5,0,.7-.1.2-.3.4-.6.4-.3,0-.5,0-.7-.2l-1.8-1.4c0,0-.1,0-.1,0,0,0,0,0,0,.1l.3,2.2c0,.3,0,.5-.2.7-.2.2-.4.3-.7.3Z"/>
                <path class="n" d="m379.9,138.6c-.3,0-.5,0-.6-.3-.2-.2-.2-.4-.2-.7l.3-2.2c0,0,0,0,0-.1,0,0,0,0-.1,0l-1.8,1.3c-.2.2-.5.2-.7.2-.2,0-.4-.2-.6-.4-.2-.3-.2-.6,0-.8s.3-.4.5-.5l2.1-.9c0,0,0,0,0,0s0,0,0,0l-2.1-.9c-.3-.1-.4-.3-.5-.5,0-.2,0-.5,0-.7.1-.2.3-.4.6-.4.2,0,.5,0,.7.2l1.8,1.4c0,0,.1,0,.1,0,0,0,0,0,0-.1l-.3-2.2c0-.3,0-.5.2-.7.2-.2.4-.3.7-.3s.5,0,.6.3c.2.2.2.4.2.7l-.3,2.2c0,0,0,0,0,.1,0,0,0,0,.1,0l1.8-1.3c.2-.2.5-.2.7-.2.3,0,.4.2.6.4.2.3.2.6,0,.8-.1.2-.3.4-.5.5l-2.1.9c0,0,0,0,0,0s0,0,0,0l2.1.9c.3.1.4.3.5.5,0,.2,0,.5,0,.7-.1.2-.3.4-.6.4-.3,0-.5,0-.7-.2l-1.8-1.4c0,0-.1,0-.1,0,0,0,0,0,0,.1l.3,2.2c0,.3,0,.5-.2.7-.2.2-.4.3-.7.3Z"/>
                <path class="n" d="m392,138.6c-.3,0-.5,0-.6-.3-.2-.2-.2-.4-.2-.7l.3-2.2c0,0,0,0,0-.1,0,0,0,0-.1,0l-1.8,1.3c-.2.2-.5.2-.7.2-.2,0-.4-.2-.6-.4-.2-.3-.2-.6,0-.8s.3-.4.5-.5l2.1-.9c0,0,0,0,0,0s0,0,0,0l-2.1-.9c-.3-.1-.4-.3-.5-.5,0-.2,0-.5,0-.7.1-.2.3-.4.6-.4.2,0,.5,0,.7.2l1.8,1.4c0,0,.1,0,.1,0,0,0,0,0,0-.1l-.3-2.2c0-.3,0-.5.2-.7.2-.2.4-.3.7-.3s.5,0,.6.3c.2.2.2.4.2.7l-.3,2.2c0,0,0,0,0,.1,0,0,0,0,.1,0l1.8-1.3c.2-.2.5-.2.7-.2.3,0,.4.2.6.4.2.3.2.6,0,.8-.1.2-.3.4-.5.5l-2.1.9c0,0,0,0,0,0s0,0,0,0l2.1.9c.3.1.4.3.5.5,0,.2,0,.5,0,.7-.1.2-.3.4-.6.4-.3,0-.5,0-.7-.2l-1.8-1.4c0,0-.1,0-.1,0,0,0,0,0,0,.1l.3,2.2c0,.3,0,.5-.2.7-.2.2-.4.3-.7.3Z"/>
                <path class="n" d="m404.2,138.6c-.3,0-.5,0-.6-.3-.2-.2-.2-.4-.2-.7l.3-2.2c0,0,0,0,0-.1,0,0,0,0-.1,0l-1.8,1.3c-.2.2-.5.2-.7.2-.2,0-.4-.2-.6-.4-.2-.3-.2-.6,0-.8.1-.2.3-.4.5-.5l2.1-.9c0,0,0,0,0,0s0,0,0,0l-2.1-.9c-.3-.1-.4-.3-.5-.5,0-.2,0-.5,0-.7.1-.2.3-.4.6-.4.2,0,.5,0,.7.2l1.8,1.4c0,0,.1,0,.1,0,0,0,0,0,0-.1l-.3-2.2c0-.3,0-.5.2-.7.2-.2.4-.3.7-.3s.5,0,.6.3c.2.2.2.4.2.7l-.3,2.2c0,0,0,0,0,.1,0,0,0,0,.1,0l1.8-1.3c.2-.2.5-.2.7-.2.3,0,.4.2.6.4.2.3.2.6,0,.8-.1.2-.3.4-.5.5l-2.1.9c0,0,0,0,0,0s0,0,0,0l2.1.9c.3.1.4.3.5.5,0,.2,0,.5,0,.7-.1.2-.3.4-.6.4-.3,0-.5,0-.7-.2l-1.8-1.4c0,0-.1,0-.1,0,0,0,0,0,0,.1l.3,2.2c0,.3,0,.5-.2.7-.2.2-.4.3-.7.3Z"/>
                <path class="r" d="m416.3,138.6c-.3,0-.5,0-.6-.3-.2-.2-.2-.4-.2-.7l.3-2.2c0,0,0,0,0-.1,0,0,0,0-.1,0l-1.8,1.3c-.2.2-.5.2-.7.2-.2,0-.4-.2-.6-.4-.2-.3-.2-.6,0-.8s.3-.4.5-.5l2.1-.9c0,0,0,0,0,0s0,0,0,0l-2.1-.9c-.3-.1-.4-.3-.5-.5,0-.2,0-.5,0-.7.1-.2.3-.4.6-.4.2,0,.5,0,.7.2l1.8,1.4c0,0,.1,0,.1,0,0,0,0,0,0-.1l-.3-2.2c0-.3,0-.5.2-.7.2-.2.4-.3.7-.3s.5,0,.6.3c.2.2.2.4.2.7l-.3,2.2c0,0,0,0,0,.1,0,0,0,0,.1,0l1.8-1.3c.2-.2.5-.2.7-.2.3,0,.4.2.6.4.2.3.2.6,0,.8-.1.2-.3.4-.5.5l-2.1.9c0,0,0,0,0,0s0,0,0,0l2.1.9c.3.1.4.3.5.5,0,.2,0,.5,0,.7-.1.2-.3.4-.6.4-.3,0-.5,0-.7-.2l-1.8-1.4c0,0-.1,0-.1,0,0,0,0,0,0,.1l.3,2.2c0,.3,0,.5-.2.7-.2.2-.4.3-.7.3Z"/>
            </g>
        </g>
    </g>
</svg>