<svg id="visual" viewBox="0 0 960 540" width="960" height="540" xmlns="http://www.w3.org/2000/svg" xmlns:xlink="http://www.w3.org/1999/xlink" version="1.1"><rect x="0" y="0" width="960" height="540" fill="#F5F5F5"></rect><path d="M0 128L40 141C80 154 160 180 240 221.5C320 263 400 320 480 323.7C560 327.3 640 277.7 720 272.3C800 267 880 306 920 325.5L960 345L960 541L920 541C880 541 800 541 720 541C640 541 560 541 480 541C400 541 320 541 240 541C160 541 80 541 40 541L0 541Z" fill="#96DFA2" stroke-linecap="round" stroke-linejoin="miter"></path></svg>