<?xml version="1.0" encoding="UTF-8"?>
<svg id="a" data-name="OBJECTS" xmlns="http://www.w3.org/2000/svg" viewBox="0 0 462.3 324.6">
    <defs>
        <style>
            .b {
            fill: #7846d1;
            }

            .b, .c, .d, .e, .f, .g, .h, .i, .j, .k, .l, .m {
            stroke-width: 0px;
            }

            .c {
            fill: #ea5143;
            }

            .n {
            opacity: .5;
            }

            .d {
            fill: #5b23a9;
            }

            .e {
            fill: #f97853;
            }

            .f {
            fill: #6020bd;
            }

            .g {
            fill: #1a0b42;
            }

            .h {
            fill: #614c6e;
            }

            .i {
            fill: #fff;
            }

            .j {
            fill: #403657;
            }

            .k {
            fill: #9c78ed;
            }

            .l {
            fill: #ffa681;
            }

            .m {
            fill: #e0d5f8;
            }
        </style>
    </defs>
    <g>
        <path class="m" d="m196,62.4C180.6,6.7,111.3-11.3,71.6,30.4c-.6.6-1.1,1.2-1.7,1.8-56.9,61.9-30,214.3,88.7,252.9,118.8,38.6,242.3-31.9,249.2-95,6.9-63.1-47.9-82.9-132.9-65.3-48,10-69.5-27.8-79.1-62.5Z"/>
        <path class="m" d="m294.8,72c-15.9,2.6-20.3,16.7-8,26.7,4.1,3.3,9.8,6,18.1,7.4,31.4,5.2,48.1-8.7,35.5-26.7-7.8-11.1-29.8-9.9-45.6-7.3Z"/>
        <path class="m" d="m48.8,185.9c-7.8-14.1-22.5-13.5-27.8,1.5-1.7,4.9-2.4,11.3-.9,19.5,5.7,31.3,24.4,42.3,37.1,24.4,7.8-11.1-.8-31.4-8.5-45.4Z"/>
        <path class="m" d="m419.1,197.5c-1.5,7.7,4.9,13.1,12,10.1,2.4-1,4.8-2.9,6.9-6.2,8.1-12.6,4-23.4-7.3-22.3-7,.7-10.2,10.7-11.6,18.3Z"/>
        <path class="m" d="m378.9,116.6c7.6,1.6,13.2-4.6,10.3-11.9-.9-2.4-2.8-4.8-6-7-12.5-8.3-23.3-4.4-22.4,6.9.6,7,10.6,10.4,18.1,11.9Z"/>
        <path class="m" d="m193.3,34.6c6,4.9,13.8,1.9,14.6-5.8.3-2.5-.3-5.5-2.2-9-7.2-13.1-18.7-14.6-23.1-4.2-2.7,6.5,4.6,14.1,10.6,19Z"/>
    </g>
    <g>
        <g>
            <path class="k" d="m435.1,309.8c2.6.4,5.4-.3,7.2-2.2,1.2-1.3,2-2.8,2-4.3,0,0,0,0,0,0,0-10.7,13.1-10,17.3-23,4.2-13.1-12.4-14.2-22-6.1-6.8,5.8-15.1-2.3-25,4.5-8.6,5.9-3.8,20.3-18,15.8-4.5-1.4-8.6,0-12,2.5-3.9,3-6.5,7.1-7.6,11.6l1.1.8c27.9,17.1,40.5-2.2,56.9.6Z"/>
            <path class="b" d="m407.5,309.2l37-23.8c.5-.3.6-1,.3-1.5-.3-.5-1-.6-1.5-.3l-39.8,25.6h3.9Z"/>
        </g>
        <g>
            <path class="d" d="m405.5,238.5c-1.6-23.3-1.8-47.7,0-63.9,2.3-21.2,7.4-35.9,15.2-43.8.5-.5,1.4-.5,1.9,0,.5.5.5,1.4,0,1.9-13.7,13.8-18.6,50.8-14.3,107.2l-2.8-1.4Z"/>
            <path class="b" d="m409,155.9s-11.2,0-10.4-19.6c0,0,17.1,4.9,10.4,19.6Z"/>
            <path class="b" d="m408,166s-.6-11.1,19-11.4c0,0-3.9,17.3-19,11.4Z"/>
            <path class="b" d="m416.6,138.4s-4.3-10.3,14.1-17.1c0,0,2.1,17.6-14.1,17.1Z"/>
            <path class="b" d="m405.5,186.2s-10.5,3.8-16.4-15c0,0,17.7-1.2,16.4,15Z"/>
            <path class="b" d="m406.1,196.6s-2.5-10.9,16.8-14.6c0,0-.9,17.7-16.8,14.6Z"/>
            <path class="b" d="m405.5,211s-10.4,4-16.7-14.7c0,0,17.7-1.5,16.7,14.7Z"/>
        </g>
        <g>
            <path class="b" d="m81.6,290.4h-3c0-.1-1.6-.2-1.6-.2l-4.6-.2s-42.2-71.7-15.8-95.1c8.1-7.2,22.4-1.2,19.2,31.9-2.9,30.7,5.8,63.6,5.8,63.6Z"/>
            <path class="d" d="m78.5,290.3h-1.6c-7.4-17.4-11.1-36.1-12.9-49.2-2.2-15.6-2.3-26.8-2.3-27,0-.4.3-.7.7-.7.4,0,.7.3.7.7,0,.1.1,11.3,2.3,26.8,1.9,13.2,5.6,32,13.1,49.4Z"/>
        </g>
        <g>
            <path class="k" d="m90,304.8l-4.1,1.5-2.2.8-6.2,2.3S-19,237.2,3.4,191.2c6.9-14.2,29.2-14.1,43.5,31.8,13.2,42.6,43.1,81.8,43.1,81.8Z"/>
            <path class="b" d="m85.8,306.3l-2.2.8c-19.5-19.1-34.9-42-44.7-58.4-11.6-19.6-18-34.6-18.1-34.7-.2-.5,0-1.2.6-1.4.5-.2,1.2,0,1.4.6,0,.2,6.4,15.1,18,34.5,9.8,16.6,25.3,39.6,45,58.7Z"/>
        </g>
        <g>
            <path class="b" d="m419.4,308.9c0-1.7-.2-3.3-.6-5-3.5-15.9,6-18.9,18.4-23.9,12.4-5,13.9-19.9,5.1-32.3-8.8-12.4,7-22.3,1.2-40.9-5.8-18.6-26.1-6.2-30.5,10.9-3.2,12.3-19.3,9.7-25.3,25.7-5.2,13.9,12.2,26.7-7.9,33.1-6.4,2-10,7-11.8,12.7-2.1,6.7-1.7,13.6.7,19.6h50.8Z"/>
            <path class="d" d="m394.8,308.9l33.2-81.9c.3-.8,0-1.7-.8-2-.8-.3-1.7,0-2,.8l-33.6,83h3.3Z"/>
        </g>
    </g>
    <g>
        <path class="j" d="m118.5,61.4s.7-14.7-8.3-17.6c-14-4.4-17.8,2.8-20,7.6-2.8,6.1-1.6,18.2,6.7,19.3,12.4,1.7,20.8-5.2,21.5-9.4Z"/>
        <path class="j" d="m127.5,110.7c7.3,0,13.5-5.1,15-12.2,1.1-5.1,2.1-9.6,2.1-12.2h0c0-.9.1-1.7.1-2.5,0-11.6-7.1-32.9-32.3-29.5,0,0-20.9,2.4-23.3,22.8,0,0-1,9.4-1.7,16.3,0,.1,0,.2,0,.4-.9,9,6.2,16.9,15.3,16.9h24.8Z"/>
        <g>
            <path class="b" d="m157.4,135s4.5,35.3,9.6,53.5c0,0,7.2-3.4,16.7-7.9,10.3-5,25-14,25-14l3.7,9s-38.1,36-50.8,38c-12.6,2-20.4-43.2-20.4-43.2l16.1-35.3Z"/>
            <path class="l" d="m207.9,167.5s-1-5,1.2-8.4c2.2-3.4,5.7-9.8,9.7-11.1,3.4-1.1-1.6,4.6-1.7,8.2,0,0,5-.6,8.6-1.8,3.2-1,9.4-2.3,12.4-2.9.8-.2,1.3.8.7,1.4-1,.9-3.1,1.9-7.4,3,0,0,10.4-2,11.5-.4,1.1,1.6-12,3.8-12,3.8,0,0,10.2-.6,10.4,1,.2,1-10.4,3.2-10.4,3.2,0,0,9.6.3,7.3,1.8-.7.4-19.3,2.5-25.8,10.2,0,0-4.4-4.5-4.5-7.9Z"/>
        </g>
        <g>
            <path class="b" d="m93.1,128s-21.3,6.3-39.7,10.4c0,0-.5-8-1-18.5-.5-11.4.4-28.7.4-28.7l-9.7,1s-13.5,50.7-9.3,62.8c4.2,12.1,57.8-4.8,57.8-4.8l1.5-22.2Z"/>
            <path class="l" d="m52.3,92.5s4.9-1.5,6.8-5.1c1.9-3.6,7.2-10.8,3.9-13.5-1.2-1-2.1,3.3-5.2,5.1,0,0-1.8-4.7-2.5-8.4-.6-3.3-2.5-9.4-3.3-12.2-.2-.8-1.4-.7-1.5,0-.3,1.3-.2,3.6.9,7.9,0,0-3.2-10.1-5.2-10.3-1.9-.2,2.3,12.4,2.3,12.4,0,0-4.3-9.2-5.8-8.7-.9.3,2.1,10.6,2.1,10.6,0,0-4.8-8.3-5-5.6,0,.8,6.9,18.2,3.3,27.5,0,0,6,1.7,9.1.2Z"/>
        </g>
        <g>
            <g>
                <path class="k" d="m156.6,271.9l.2.8c-16.6,11.3-78.8,3.6-78.8,3.6.1-1.3.2-2.7.4-4.1.2-1.6.4-3.2.7-4.9.8-4.5,1.8-9.4,2.9-14.5.4-1.6.7-3.2,1.1-4.8,1.1-4.8,2.3-9.7,3.4-14.4.4-1.6.8-3.2,1.1-4.8.5-2.2,1-4.4,1.5-6.5.6-2.8,1.2-5.5,1.6-8.1.3-1.7.6-3.4.8-4.9.2-1.7.4-3.2.5-4.7-1-3.7-1.9-7.2-2.8-10.7-.4-1.8-.8-3.5-1.3-5.2-1.3-5.5-2.4-10.7-3.4-15.5-.3-1.8-.7-3.5-1-5.2-1.1-5.7-2-10.9-2.7-15.5-.3-1.8-.5-3.5-.8-5.1-.2-1.7-.5-3.4-.6-4.8-.8-6.4-1.1-10.1-1.1-10.1.1-.1.3-.2.5-.3,1.9-1.3,4.8-2.6,8.1-3.7,3.5-1.2,7.3-2.2,10.7-3,.5-.1,1-.2,1.5-.4,4.4-1,7.7-1.6,7.7-1.6,15.1,3.2,19.4,1.1,19.4,1.1l7.7,2.3.9.3,5.6,2h.2c0,0,10,3.6,10,3.6l6.7,2.3-2.6,12-1.1,5.2-3.4,15.7-1.1,5.2-3.4,15.7-1.1,5.1-2.8,13,.6,2.5,1.1,4.8,1.7,7.7,1.6,6.9,1.1,4.8,3.3,14.4,1.1,4.8,3.3,14.3,1.1,4.8Z"/>
                <path class="l" d="m134.9,127.1c-1.6,9.4-6.2,18.9-15.7,19.9-11.5,1.2-17.4-13.1-20-22,4.4-1,9-2,9-2,15.1,3.2,18,1.2,18,1.2l7.8,2.6.9.3Z"/>
                <path class="i" d="m118.1,139.1c-12,0-14.9-14.8-14.9-15,0-.3.2-.6.5-.7.3,0,.6.2.7.5.1.6,2.8,14.6,14.5,14,10.2-.5,10.8-11.8,10.8-12.3,0-.3.3-.6.6-.6.3,0,.6.3.6.6,0,.1-.7,12.8-11.9,13.4-.3,0-.5,0-.8,0Z"/>
                <path class="b" d="m96.5,135c0,1.6-1.3,2.9-2.9,2.9s-2.9-1.3-2.9-2.9,1.3-2.9,2.9-2.9,2.9,1.3,2.9,2.9Z"/>
                <path class="b" d="m90.6,149.3c0,1.6-1.3,2.9-2.9,2.9s-2.9-1.3-2.9-2.9,1.3-2.9,2.9-2.9,2.9,1.3,2.9,2.9Z"/>
                <path class="b" d="m109.4,156.1c0,1.6-1.3,2.9-2.9,2.9s-2.9-1.3-2.9-2.9,1.3-2.9,2.9-2.9,2.9,1.3,2.9,2.9Z"/>
                <path class="b" d="m96.3,164.1c.6,1.5-.1,3.2-1.6,3.8-1.5.6-3.2-.1-3.8-1.6-.6-1.5.1-3.2,1.6-3.8,1.5-.6,3.2.1,3.8,1.6Z"/>
                <path class="b" d="m121.8,169.5c0,1.6-1.3,2.9-2.9,2.9s-2.9-1.3-2.9-2.9,1.3-2.9,2.9-2.9,2.9,1.3,2.9,2.9Z"/>
                <path class="b" d="m140.5,175.5c0,1.6-1.3,2.9-2.9,2.9s-2.9-1.3-2.9-2.9,1.3-2.9,2.9-2.9,2.9,1.3,2.9,2.9Z"/>
                <path class="b" d="m144.2,137.9c0,1.6-1.3,2.9-2.9,2.9s-2.9-1.3-2.9-2.9,1.3-2.9,2.9-2.9,2.9,1.3,2.9,2.9Z"/>
                <path class="b" d="m122.9,188.2c0,1.6-1.3,2.9-2.9,2.9s-2.9-1.3-2.9-2.9,1.3-2.9,2.9-2.9,2.9,1.3,2.9,2.9Z"/>
                <path class="b" d="m104.9,197.3c0,1.6-1.3,2.9-2.9,2.9s-2.9-1.3-2.9-2.9,1.3-2.9,2.9-2.9,2.9,1.3,2.9,2.9Z"/>
                <path class="b" d="m102.8,180.8c0,1.6-1.3,2.9-2.9,2.9s-2.9-1.3-2.9-2.9,1.3-2.9,2.9-2.9,2.9,1.3,2.9,2.9Z"/>
                <path class="b" d="m131.7,156.8c0,1.6-1.3,2.9-2.9,2.9s-2.9-1.3-2.9-2.9,1.3-2.9,2.9-2.9,2.9,1.3,2.9,2.9Z"/>
                <path class="b" d="m147.9,153.1c0,1.6-1.3,2.9-2.9,2.9s-2.9-1.3-2.9-2.9,1.3-2.9,2.9-2.9,2.9,1.3,2.9,2.9Z"/>
                <path class="b" d="m137.5,193.1c0,1.6-1.3,2.9-2.9,2.9s-2.9-1.3-2.9-2.9,1.3-2.9,2.9-2.9,2.9,1.3,2.9,2.9Z"/>
                <path class="b" d="m138.3,216.3c0,1.6-1.3,2.9-2.9,2.9s-2.9-1.3-2.9-2.9,1.3-2.9,2.9-2.9,2.9,1.3,2.9,2.9Z"/>
                <path class="b" d="m123.4,206.6c.6,1.5-.1,3.2-1.6,3.8-1.5.6-3.2-.1-3.8-1.6-.6-1.5.1-3.2,1.6-3.8,1.5-.6,3.2.1,3.8,1.6Z"/>
                <path class="b" d="m103.4,215.2c.6,1.5-.1,3.2-1.6,3.8-1.5.6-3.2-.1-3.8-1.6-.6-1.5.1-3.2,1.6-3.8,1.5-.6,3.2.1,3.8,1.6Z"/>
            </g>
            <polygon class="k" points="162.8 308.9 162.2 305.2 159.9 291 159.1 286.2 156.8 272.6 152.7 272.8 98.2 275.3 78 276.2 76.7 286.7 76.1 291.6 74.3 306.2 74 308.9 162.8 308.9"/>
            <path class="j" d="m162.8,308.9l-.6-3.3v-.3s-.4-2.3-.4-2.3l-.4-2.3-1.6-9.5-.5-2.8-.3-2v-.3s-2.1-12.4-2.1-12.4v-.9c-.1,0-.3-.8-.3-.8l-.2-.7-.9-4.1-1.8-8-.5-2.3-.9-4-1.1-4.8-.7-3.3-.5-2.3-2-8.9-.7-3.2-.3-1.6-.2-.7-1.4-6.2c-22.1,6.5-45.6,2.7-56,.3-.5,2.1-1,4.3-1.5,6.5-.1.5-.2,1-.3,1.5-.2.8-.4,1.5-.6,2.3,0,.4-.2.7-.3,1.1-.9,3.6-1.8,7.3-2.6,11-.2.8-.3,1.5-.5,2.3,0,.4-.2.8-.3,1.2-.4,1.6-.7,3.2-1.1,4.8-.5,2.1-.9,4.2-1.3,6.2-.2.8-.3,1.5-.5,2.2-.4,2.1-.8,4.1-1.1,6-.3,1.7-.5,3.3-.7,4.9,0,.5-.1,1-.2,1.4,0,.8-.2,1.5-.2,2.3,0,.1,0,.2,0,.3l-1.3,10.5-.2,1.6-.3,2.3v1c-.1,0-1.5,11.5-1.5,11.5l-.3,2.3v.7c0,0-.4,2.7-.4,2.7h88.8Z"/>
        </g>
        <g>
            <g>
                <g>
                    <path class="e" d="m136,87.6s3.6-4.6,6.3-.8c2.7,3.8-1.1,14.9-7.7,12.2l1.4-11.4Z"/>
                    <path class="c" d="m136.1,95.6c.2,0,.5-.2.5-.4,1-3.4,4.8-4.8,4.8-4.9.3-.1.4-.4.3-.7-.1-.3-.4-.4-.7-.3-.2,0-4.3,1.6-5.5,5.6,0,.3,0,.6.4.6,0,0,.1,0,.1,0Z"/>
                    <path class="c" d="m139.9,93.9c.1,0,.2,0,.3,0,.3-.2.3-.5.2-.7,0,0-.7-1-2.1-1.6-.3-.1-.6,0-.7.3-.1.3,0,.6.3.7,1.1.5,1.6,1.2,1.6,1.2.1.2.3.2.5.2Z"/>
                    <path class="i" d="m134.4,99c-.6.7-1,1.6-1,2.6,0,2.2,1.8,3.9,3.9,3.9s3.9-1.8,3.9-3.9-.6-2.3-1.5-3.1c-.5-.4-1-.6-1.6-.7,0-.3,0-.5.1-.7.7.2,1.4.5,2,1,1,.9,1.7,2.1,1.7,3.6,0,2.6-2.1,4.7-4.7,4.7s-4.7-2.1-4.7-4.7.4-2.1,1-2.9c.2.1.5.2.7.3Z"/>
                </g>
                <path class="l" d="m108.3,110.9v13.7s6.4,4.9,11.3,5.3c5,.4,6.7-5.4,6.7-5.4v-12.7l-18-.9Z"/>
                <path class="e" d="m108.3,112.3v5.5c3.3,3.7,9.2,5,18,3.7v-8.3s-18-.9-18-.9Z"/>
                <path class="l" d="m138.2,92.8c-.2,1.3-.3,2.7-.6,4-1.6,8.9-7.2,18.5-14.3,20.1-15.3,3.5-21.7-8.6-24.2-17.5-.3-1,.2-2.1,0-3.3-.5-2.8-1.6-5.9-1.9-9-.2-2.2-.3-4.3-.4-6.2-.2-5.4,2.9-10.4,7.8-12.3,7.1-2.8,17.8-5,27.9.9,3.7,2.2,6.1,6.3,6.2,10.7,0,3.4,0,7.8-.6,12.5Z"/>
                <path class="e" d="m118.8,99.7c-.3,0-.5-.2-.6-.5,0-.3.2-.6.5-.7l2-.3-2.8-7.5c-.1-.3,0-.7.3-.8.3-.1.7,0,.8.3l3.3,8.9-3.5.6s0,0,0,0Z"/>
                <path class="j" d="m126.1,89.8c0,1.3.7,2.4,1.5,2.4s1.5-1.1,1.5-2.4-.7-2.4-1.5-2.4-1.5,1.1-1.5,2.4Z"/>
                <path class="j" d="m109.4,89.8c0,1.3.7,2.4,1.5,2.4s1.5-1.1,1.5-2.4-.7-2.4-1.5-2.4-1.5,1.1-1.5,2.4Z"/>
                <path class="j" d="m132,83.5c-1.2-.2-3.7-.6-6.3-.5-.7,0-1.2.5-1.1,1.1h0c0,.5.5.7,1.1.7,1.8-.1,6.4-.1,8.6.5,0-.3-.1-.6-.5-.9-.5-.4-1.1-.7-1.8-.9Z"/>
                <path class="j" d="m107.8,83.8c1.2-.3,3.7-.7,6.3-.6.7,0,1.2.5,1.2,1.1h0c0,.5-.5.8-1.1.7-1.8-.1-6.4,0-8.6.7,0-.3.1-.7.4-.9.5-.4,1.1-.7,1.8-.9Z"/>
                <path class="i" d="m126.1,103.3c-.4,2.1-1.9,5.9-6.9,5.9s-6.3-3.5-6.8-5.9h13.7Z"/>
                <path class="e" d="m119.3,112.8c1.4,0,2.7-.8,2.7-.8.3-.2.4-.5.2-.8-.2-.3-.5-.4-.8-.2h0s-1,.6-2.1.6-2.2-.6-2.2-.6c-.3-.2-.6,0-.8.2-.2.3,0,.6.2.8,0,0,1.3.8,2.8.8Z"/>
                <path class="j" d="m138.8,91.4c-.1.1-.3,0-.4-.2-2-3.6-.1-10.7-6.1-13.4-4.6-2.1-6.2-6.4-6.2-6.4-1,1.8-3.8,3.4-3.8,3.4,0,0-6.9,4.1-14.1,6.8-2.1.8-3.6,1.7-4.7,2.4,0,0,.1,0,.1,0,0,0-2,3.2-.5,8.2,1.5,5-.4,13.3-3.6,15.2,0-.1,2.5-5.9,1.1-10.5-.8-2.7-.8-6.9-1.5-9.5-.8-.6-2.7-1.5-3.4-1.9-.2-2.2-.3-4.4-.4-6.3-.3-5.5,3-10.6,8.2-12.6,7.4-2.9,18.7-5.1,29.4.9,3.9,2.2,6.4,6.4,6.5,10.9,0,3.5,0,8-.6,12.7Z"/>
            </g>
            <g>
                <path class="l" d="m99.1,87.6s-4.2-5.1-6.7-1.4c-2.5,3.7,1.2,14.9,7.2,12.3l-.6-10.8Z"/>
                <path class="i" d="m99.3,98.6c.4.8.6,1.8.3,2.8-.5,2.1-2.6,3.4-4.7,2.8s-3.4-2.6-2.8-4.7c.3-1.2,1.1-2.1,2.2-2.6.5-.2,1.1-.4,1.7-.3.1-.2.2-.5,0-.8-.8,0-1.5.1-2.2.5-1.2.6-2.1,1.7-2.5,3.1-.6,2.5.9,5,3.4,5.6,2.5.6,5-.9,5.6-3.4.3-1.1.1-2.2-.3-3.1-.3,0-.5,0-.8.1Z"/>
                <path class="e" d="m98.2,94.7c-.2,0-.4-.1-.5-.4-.9-3.3-4.4-4.7-4.4-4.7-.3-.1-.4-.4-.3-.7,0-.3.4-.4.7-.3.2,0,4,1.5,5.1,5.4,0,.3,0,.6-.4.6,0,0,0,0-.1,0Z"/>
                <path class="e" d="m94.7,93c0,0-.2,0-.3,0-.2-.2-.3-.5-.2-.7,0,0,.6-1,1.9-1.5.3-.1.6,0,.7.3.1.3,0,.6-.3.7-1,.4-1.5,1.2-1.5,1.2,0,.2-.3.2-.4.2Z"/>
            </g>
        </g>
    </g>
    <g>
        <path class="l" d="m321,198c-9.7,7-25,11.8-25,11.8l-3.1-11.2-2.4-8.8-1.7-6.2h-17.5c.9,3.3,1.9,6.6,2.9,9.9,1.3,4.3,2.5,8.4,3.7,12.3,1.7,5.4,3.2,10.2,4.5,13.5.3.8.6,1.7,1,2.6,2.3,6.3,4.2,13.2,13.1,8.9,7.9-3.8,18.5-9,23.8-12.5l.7-20.3Z"/>
        <g>
            <path class="e" d="m274.1,193.5c1.3,4.2,2.5,8.4,3.7,12.3,7.1-.8,12.1-4.3,15-7.2l-2.4-8.8-16.3,3.7Z"/>
            <path class="f" d="m270.4,132.2s18.2,43.5,26.1,57.6c0,0-11,9.3-21.7,9.6,0,0-6.2-47.7-4.4-67.2Z"/>
        </g>
        <g>
            <path class="k" d="m227.7,308.9c.2-3,.4-5.9.5-8.6.6-11,1.1-18.5,1.1-18.5l-4.3-.2h-2.4c0-.1-29.2-1.4-29.2-1.4,0,0-.5,8.4-1.2,20.7-.1,2.5-.3,5.2-.4,8h35.9Z"/>
            <path class="b" d="m225,281.6l4.3.2s-.4,7.5-1.1,18.5c-11.2.9-23.5,1.3-36.1.6.6-12.3,1.2-20.7,1.2-20.7l29.2,1.3h2.4Z"/>
            <path class="b" d="m223.5,308.9c.7-11.7,1.2-21.8,1.5-27.3h-2.4c-.3,5.4-.9,15.5-1.5,27.3h2.4Z"/>
        </g>
        <g>
            <path class="k" d="m237.1,308.9h35.9c-.1-2.8-.3-5.5-.4-8-.6-12.3-1.2-20.7-1.2-20.7l-29.2,1.3h-2.4c0,.1-4.3.3-4.3.3,0,0,.4,7.5,1.1,18.5.2,2.7.3,5.6.5,8.6Z"/>
            <path class="b" d="m239.9,281.6l-4.3.2s.4,7.5,1.1,18.5c11.2.9,23.5,1.3,36.1.6-.6-12.3-1.2-20.7-1.2-20.7l-29.2,1.3h-2.4Z"/>
            <path class="b" d="m243.8,308.9c-.7-11.8-1.2-21.9-1.5-27.4h-2.4c.3,5.6.9,15.7,1.5,27.4h2.4Z"/>
        </g>
        <path class="b" d="m187,259.4c0,.6,0,1.2,0,1.8,0,10.7,0,19,.1,23,10.3,2.8,20.6,4.6,31,5.4.5,0,.9,0,1.4.1.3,0,.5,0,.8,0,.6,0,1.1,0,1.7.1.6,0,1.2,0,1.8.1,7,.3,14.1.2,21.1-.4,1.4-.1,2.8-.3,4.3-.4,0,0,.2,0,.3,0,.4,0,.7,0,1.1-.1.2,0,.4,0,.7,0,8.2-1,16.3-2.6,24.5-4.8,0-1.8,0-4.6,0-8s0-1.3,0-2h0c0-4.9,0-11.1,0-18,0-.6,0-1.2,0-1.8,0-4.6,0-9.6-.1-14.7,0-.6,0-1.2,0-1.8,0-5.3-.1-10.8-.2-16.4,0-3.4-.1-6.9-.2-10.3,0-3.5-.1-7-.2-10.5,0-.8,0-1.5,0-2.3-.8-32.9-2.2-63-4.5-66.4-1.6-2.3-5.2-5.1-9.5-7.8-.5-.3-1.1-.7-1.6-1-1.8-1.1-16.7-6.2-18.6-7.3l-15.7-1.1c0,0-15.1,5.1-15.2,5.2-.6.4-1.3.7-1.9,1.1-5.6,3.2-11.1,6.6-14.2,9.5-.5.4-.9.8-1.2,1.2-.3.3-.5.6-.7.9-.2.3-.4.7-.5,1.4-1.9,6.9-2.9,34.1-3.4,63.7,0,2.1,0,4.3,0,6.4,0,.9,0,1.9,0,2.8,0,.6,0,1.3,0,1.9,0,.3,0,.6,0,1,0,1.6,0,3.2,0,4.8,0,1.2,0,2.4,0,3.5-.1,14.9-.2,29.4-.2,41.2Z"/>
        <g>
            <g>
                <path class="l" d="m158.9,301.6c-.4,4.2,4.7,1.9,3.3-6.6-1.4-8.5,2.7-16.2,4.4-16,1.8.3-1.5,9.3.1,12.5,1.6,3.3,3.6-3.1,5.6-6.9,2.1-4,2-12.7,1-18.9-1-6.2,10.3-43.9,10.4-54.9l1.4-4.6,5-17,7.9-26.6s-4.7-20.1-12.7-18.4c0,0-4.2,14-8.7,29.8-.8,2.7-1.5,5.4-2.3,8.1-3.2,11.5-6.2,22.8-7.6,29.5-3.7,17.7-4,54.5-4,54.5,0,0-6.5,13.5-6.7,19.6-.2,6.4,3.2,11.5,2.8,15.7Z"/>
                <path class="e" d="m174.3,182.3l10.8,24,5-17-13.5-15.1c-.8,2.7-1.5,5.4-2.3,8.1Z"/>
            </g>
            <path class="b" d="m173.8,175.2c4.7,8.1,9.5,16.1,14.3,24.2,1.6-5.3,3.2-10.3,4.7-15,0,0,0,0,0,0,.6-1.9,1.2-3.7,1.8-5.4,0,0,0,0,0,0,.2-.6.4-1.2.6-1.8h0c2.3-6.9,4-12.4,4.6-15.6,1.4-8.6-2.4-25.5-7.6-28.8h0c-.1.3-.5-.6-.8,0-.9,2.1-5,7.4-7,12.5-.3.7-.5,1.3-.8,2-2.9,7.5-6.5,17.3-9.8,28Z"/>
        </g>
        <g>
            <path class="f" d="m231.9,130.4c6.8,0,11.6-6.2,11.8-6.5.3-.4.2-.9-.1-1.2s-.9-.2-1.2.1c0,0-4.5,5.8-10.5,5.8s-9.6-6.5-9.6-6.6c-.2-.4-.7-.6-1.1-.3-.4.2-.5.8-.3,1.2.2.3,4.1,7.4,11,7.4Z"/>
            <path class="f" d="m260.7,190c.1,0,.3,0,.4,0,.4-.2.6-.8.4-1.2l-3-6.3c-.2-.4-.7-.6-1.1-.4-.4.2-.6.8-.4,1.2l3,6.3c.1.3.4.5.7.5Z"/>
            <path class="f" d="m266.9,184.8c.1,0,.2.1.4.1.5,0,.9-.3.9-.8l.6-7c0-.5-.3-.9-.8-1-.5,0-.9.3-.9.8l-.6,7c0,.3.1.7.4.8Z"/>
            <path class="f" d="m251,174c.4,0,.8-.3.8-.7l1.1-6.9c0-.5-.2-.9-.7-1-.5,0-.9.2-1,.7l-1.1,6.9c0,.5.2.9.7,1,0,0,0,0,.1,0Z"/>
            <path class="f" d="m224.3,176.5c.1,0,.3,0,.4-.1.4-.2.5-.8.3-1.2l-3.4-6.1c-.2-.4-.7-.6-1.1-.3-.4.2-.5.8-.3,1.2l3.4,6.1c.2.3.4.4.7.4Z"/>
            <path class="f" d="m257.1,149.4c.2,0,.3,0,.4-.1l5.5-3.8c.4-.3.5-.8.2-1.2-.2-.4-.8-.5-1.1-.3l-5.5,3.8c-.4.3-.5.8-.2,1.2.2.3.4.4.7.4Z"/>
            <path class="f" d="m232.5,205.8c.1,0,.3,0,.4,0,.4-.2.6-.8.4-1.2l-3-6.3c-.2-.4-.7-.6-1.1-.4-.4.2-.6.8-.4,1.2l3,6.3c.1.3.4.5.7.5Z"/>
            <path class="f" d="m245.5,154.1c.3,0,.5-.1.7-.4.2-.4.1-1-.3-1.2l-5.6-3.7c-.4-.3-.9-.1-1.1.3-.2.4-.1,1,.3,1.2l5.6,3.7c.1,0,.3.1.4.1Z"/>
            <path class="f" d="m258.8,128c0,.2,0,.3,0,.5.1.3.4.4.7.5.5,0,.9-.3.9-.8l.3-4c-.5-.3-1.1-.7-1.6-1l-.3,4.9Z"/>
            <path class="f" d="m266.2,166.5c.3,0,.5-.1.7-.4.2-.4.1-1-.3-1.2l-5.6-3.7c-.4-.3-.9-.1-1.1.3-.2.4-.1,1,.3,1.2l5.6,3.7c.1,0,.3.1.4.1Z"/>
            <path class="f" d="m221.7,135.9c.2,0,.3,0,.5-.1.4-.3.5-.8.2-1.2l-3.2-5.2c-.3-.4-.8-.5-1.1-.3-.4.3-.5.8-.2,1.2l3.2,5.2c.2.3.4.4.7.4Z"/>
            <path class="f" d="m218.9,225.1c.2,0,.4,0,.6-.3l4.6-5.1c.3-.4.3-.9,0-1.3-.3-.3-.9-.3-1.2,0l-4.6,5.1c-.3.4-.3.9,0,1.3.2.2.4.2.6.2Z"/>
            <path class="f" d="m235.6,224c.2,0,.4,0,.6-.3l4.6-5.1c.3-.4.3-.9,0-1.3-.3-.3-.9-.3-1.2,0l-4.6,5.1c-.3.4-.3.9,0,1.3.2.2.4.2.6.2Z"/>
            <path class="f" d="m247.7,258.3c0-.2,0-.5,0-.7l-2.8-6.3c-.2-.4-.7-.6-1.1-.4-.4.2-.6.7-.4,1.2l2.8,6.3c.2.4.7.6,1.1.4.2-.1.3-.3.4-.5Z"/>
            <path class="f" d="m199.6,279.3c0-.2,0-.5,0-.7l-2.8-6.3c-.2-.4-.7-.6-1.1-.4-.4.2-.6.7-.4,1.2l2.8,6.3c.2.4.7.6,1.1.4.2-.1.3-.3.4-.5Z"/>
            <path class="f" d="m220.3,289.8c.6,0,1.1,0,1.7.1l.6-4c0-.5-.2-.9-.7-1-.5,0-.9.3-.9.7l-.6,4.1Z"/>
            <path class="f" d="m213.6,277.8c.2-.1.3-.3.3-.6l1-7c0-.5-.2-.9-.7-1-.5,0-.9.3-.9.7l-1,7c0,.5.2.9.7,1,.2,0,.4,0,.6-.1Z"/>
            <path class="f" d="m253.6,219.7c.1,0,.3,0,.4-.1.4-.2.5-.8.3-1.2l-3.3-6.1c-.2-.4-.7-.6-1.1-.3-.4.2-.5.8-.3,1.2l3.3,6.1c.2.3.4.4.7.4Z"/>
            <path class="f" d="m244,204.5c.3,0,.6-.2.7-.5l3-6.3c.2-.4,0-1-.4-1.2-.4-.2-.9,0-1.1.4l-3,6.3c-.2.4,0,1,.4,1.2.1,0,.3,0,.4,0Z"/>
            <path class="f" d="m270.2,203.6c0,.1.2.2.3.2.3.1.6,0,.9-.1l3.4-3c0-.8,0-1.5,0-2.3l-4.4,4c-.3.3-.4.9,0,1.3Z"/>
            <path class="f" d="m244,138.1c.3,0,.6-.2.7-.5l3-6.3c.2-.4,0-1-.4-1.2-.4-.2-.9,0-1.1.4l-3,6.3c-.2.4,0,1,.4,1.2.1,0,.3,0,.4,0Z"/>
            <path class="f" d="m224.7,161c0,0,.1,0,.2,0,.4,0,.7-.6.7-1l-1.2-6.9c0-.5-.5-.8-1-.7-.4,0-.7.6-.7,1l1.2,6.9c0,.4.4.7.8.7Z"/>
            <path class="f" d="m235.4,167.1c0,0,.1,0,.2,0,.4,0,.7-.6.7-1l-1.2-6.9c0-.5-.5-.8-1-.7-.4,0-.7.6-.7,1l1.2,6.9c0,.4.4.7.8.7Z"/>
            <path class="f" d="m227.7,144.3c.3,0,.5-.1.7-.4l3.5-5.9c.2-.4.1-1-.3-1.2-.4-.3-.9-.1-1.1.3l-3.5,5.9c-.2.4-.1,1,.3,1.2.1,0,.3.1.4.1Z"/>
            <path class="f" d="m260.1,205.6c.2-.3.3-.6.1-1l-2.8-6.4c-.2-.4-.7-.6-1.1-.4-.4.2-.6.7-.4,1.2l2.8,6.4c.2.4.7.6,1.1.4,0,0,.2-.1.2-.2Z"/>
            <path class="f" d="m238.7,187.2c.3,0,.6-.2.8-.6l2.4-6.6c.2-.5,0-1-.5-1.1-.4-.2-.9,0-1.1.5l-2.4,6.6c-.2.5,0,1,.5,1.1,0,0,.2,0,.3,0Z"/>
            <path class="f" d="m212.4,227.6c.1,0,.3,0,.4,0,.4-.2.6-.8.4-1.2l-3-6.3c-.2-.4-.7-.6-1.1-.4-.4.2-.6.8-.4,1.2l3,6.3c.1.3.4.5.7.5Z"/>
            <path class="f" d="m256.1,272.8c0,.1,0,.3,0,.4.2.4.7.6,1.1.4l5.8-3.2c.4-.2.6-.8.4-1.2-.2-.4-.7-.6-1.1-.4l-5.8,3.2c-.3.2-.5.5-.4.8Z"/>
            <path class="f" d="m271.9,276.8c0,.1,0,.3,0,.4.2.4.7.6,1.1.4l2.5-1.4c0-.6,0-1.3,0-2l-3.3,1.8c-.3.2-.5.5-.4.8Z"/>
            <path class="f" d="m247.4,284.6l2,4.6c.4,0,.7,0,1.1-.1.2,0,.4,0,.7,0l-2.2-5.1c-.2-.4-.7-.6-1.1-.4-.4.2-.6.7-.4,1.2Z"/>
            <path class="f" d="m201.6,211.6c.4,0,.8-.3.8-.7l1.1-6.9c0-.5-.2-.9-.7-1-.5,0-.9.2-1,.7l-1.1,6.9c0,.5.2.9.7,1,0,0,0,0,.1,0Z"/>
            <path class="f" d="m200.9,160.4c.1,0,.3,0,.4-.1.4-.2.5-.8.3-1.2l-3.4-6.1c-.2-.4-.7-.6-1.1-.3-.4.2-.5.8-.3,1.2l3.4,6.1c.2.3.4.4.7.4Z"/>
            <path class="f" d="m211.7,185c.2,0,.3,0,.4-.1l5.5-3.8c.4-.3.5-.8.2-1.2-.2-.4-.8-.5-1.1-.3l-5.5,3.8c-.4.3-.5.8-.2,1.2.2.3.4.4.7.4Z"/>
            <path class="f" d="m270.2,226.3c.1,0,.3,0,.4,0,.4-.2.6-.8.4-1.2l-3-6.3c-.2-.4-.7-.6-1.1-.4-.4.2-.6.8-.4,1.2l3,6.3c.1.3.4.5.7.5Z"/>
            <path class="f" d="m202.3,194.5c.3,0,.5-.1.7-.4.2-.4.1-1-.3-1.2l-5.6-3.7c-.4-.3-.9-.1-1.1.3-.2.4-.1,1,.3,1.2l5.6,3.7c.1,0,.3.1.4.1Z"/>
            <path class="f" d="m215.7,203.4c.2.2.5.3.8.2.4-.1.7-.6.6-1.1l-1.7-6.8c-.1-.5-.6-.8-1-.6-.4.1-.7.6-.6,1.1l1.7,6.8c0,.2.1.3.2.4Z"/>
            <path class="f" d="m192.1,131.7l1.4,2.3c.2.3.4.4.7.4s.3,0,.5-.1c.4-.3.5-.8.2-1.2l-1.6-2.6c-.5.4-.9.8-1.2,1.2Z"/>
            <path class="f" d="m185.8,147.2l1.5,2.5c.2.3.4.4.7.4s.3,0,.5-.1c.4-.3.5-.8.2-1.2l-2.2-3.5c-.2.7-.5,1.3-.7,2Z"/>
            <path class="f" d="m257.5,248.2c.2,0,.4,0,.6-.3l4.6-5.1c.3-.4.3-.9,0-1.3-.3-.3-.9-.3-1.2,0l-4.6,5.1c-.3.4-.3.9,0,1.3.2.2.4.2.6.2Z"/>
            <path class="f" d="m227.2,265.9c.2,0,.4,0,.6-.3l4.6-5.1c.3-.4.3-.9,0-1.3-.3-.3-.9-.3-1.2,0l-4.6,5.1c-.3.4-.3.9,0,1.3.2.2.4.2.6.2Z"/>
            <path class="f" d="m218.8,258.9c.1-.2.2-.4.2-.7l-.8-7c0-.5-.5-.8-.9-.8-.5,0-.8.5-.7,1l.8,7c0,.5.5.8.9.8.2,0,.4-.1.5-.3Z"/>
            <path class="f" d="m236.1,278.6c.2,0,.4,0,.6-.3l4.6-5.1c.3-.4.3-.9,0-1.3-.3-.3-.9-.3-1.2,0l-4.6,5.1c-.3.4-.3.9,0,1.3.2.2.4.2.6.2Z"/>
            <path class="f" d="m187,259.4c0,.6,0,1.2,0,1.8l5.1.5c.5,0,.9-.3.9-.8,0-.5-.3-.9-.8-1l-5.3-.5Z"/>
            <path class="f" d="m247.2,237.5c.2,0,.4,0,.6-.3l4.6-5.1c.3-.4.3-.9,0-1.3-.3-.3-.9-.3-1.2,0l-4.6,5.1c-.3.4-.3.9,0,1.3.2.2.4.2.6.2Z"/>
            <path class="f" d="m225.3,235.3c0,.2.1.5.3.6l5,4.5c.4.3.9.3,1.2-.1.3-.4.2-.9-.1-1.2l-5-4.5c-.4-.3-.9-.3-1.2.1-.1.2-.2.4-.2.6Z"/>
            <path class="f" d="m201.3,260.2c.1,0,.3,0,.4-.1.4-.2.5-.8.3-1.2l-3.3-6.1c-.2-.4-.7-.6-1.1-.3-.4.2-.5.8-.3,1.2l3.3,6.1c.2.3.4.4.7.4Z"/>
            <path class="f" d="m195.6,242.1c.3,0,.6-.2.7-.5l3-6.3c.2-.4,0-1-.4-1.2-.4-.2-.9,0-1.1.4l-3,6.3c-.2.4,0,1,.4,1.2.1,0,.3,0,.4,0Z"/>
            <path class="f" d="m204.6,171.1c.3,0,.6-.2.7-.5l3-6.3c.2-.4,0-1-.4-1.2-.4-.2-.9,0-1.1.4l-3,6.3c-.2.4,0,1,.4,1.2.1,0,.3,0,.4,0Z"/>
            <path class="f" d="m201.3,144.9c0,0,.1,0,.2,0,.4,0,.7-.6.7-1l-1.2-6.9c0-.5-.5-.8-1-.7-.4,0-.7.6-.7,1l1.2,6.9c0,.4.4.7.8.7Z"/>
            <path class="f" d="m186.2,168.7c0,0,.1,0,.2,0,.4,0,.7-.6.7-1l-1.2-6.9c0-.5-.5-.8-1-.7-.4,0-.7.6-.7,1l1.2,6.9c0,.4.4.7.8.7Z"/>
            <path class="f" d="m212.1,150.9c0,0,.1,0,.2,0,.4,0,.7-.6.7-1l-1.2-6.9c0-.5-.5-.8-1-.7-.4,0-.7.6-.7,1l1.2,6.9c0,.4.4.7.8.7Z"/>
            <path class="f" d="m207.1,126.9c.2,0,.3,0,.5,0,.3,0,.5-.3.5-.6l1.4-6.3c-.6.4-1.3.7-1.9,1.1l-1.1,4.8c-.1.5.2,1,.6,1.1Z"/>
            <path class="f" d="m188.2,179.4c.3,0,.5-.1.7-.4l3.5-5.9c.2-.4.1-1-.3-1.2-.4-.3-.9-.1-1.1.3l-3.5,5.9c-.2.4-.1,1,.3,1.2.1,0,.3.1.4.1Z"/>
            <path class="f" d="m211.7,243.2c.2-.3.3-.6.1-1l-2.8-6.4c-.2-.4-.7-.6-1.1-.4-.4.2-.6.7-.4,1.2l2.8,6.4c.2.4.7.6,1.1.4,0,0,.2-.1.2-.2Z"/>
            <path class="f" d="m270,255.2l5.5,1c0-.6,0-1.2,0-1.8l-5.3-.9c-.5,0-.9.3-.9.7,0,.5.2.9.7,1Z"/>
            <path class="f" d="m271.7,238.9l3.7.6c0-.6,0-1.2,0-1.8l-3.4-.6c-.5,0-.9.3-.9.7,0,.5.2.9.7,1Z"/>
            <path class="f" d="m190.4,224.8c.3,0,.6-.2.8-.6l2.4-6.6c.2-.5,0-1-.5-1.1-.4-.2-.9,0-1.1.5l-2.4,6.6c-.2.5,0,1,.5,1.1,0,0,.2,0,.3,0Z"/>
        </g>
        <path class="f" d="m187.3,204.1c1.6-6.4,3.5-13.6,5.5-19.7,0,0,0,0,0,0,.6-1.9,1.2-3.7,1.8-5.4,0,0,0,0,0,0,.2-.5.4-1,.5-1.5,0,0,0-.2,0-.3h0c0-.3-.2-.6-.5-.7-.4-.1-.8,0-.9.4-2,5.4-4.3,13.2-6.3,20.9,0,2.1,0,4.3,0,6.4Z"/>
        <g>
            <path class="j" d="m211.1,79.9s-5.8-6.4-3.6-13.8c2.2-7.4,8.1-7.3,8.1-7.3,0,0,3.5-7.9,9.4-8.1,5.9-.3,11.5-10.8,16.9-7.9,5.4,2.9-.6,9.1-.6,9.1,0,0,9.2-9.7,12.3-6.9,3,2.9-4.2,10.5-4.2,10.5,0,0,7.8-5.5,10.3-3.4,2.5,2.1-6.1,11-6.1,11,0,0,5.6,10.1,0,14.6l-42.5,2.2Z"/>
            <g>
                <path class="e" d="m251.5,82.1s3.7-4.9,6.4-.9c2.7,4.1-1.1,16.1-7.9,13.2l1.4-12.3Z"/>
                <path class="c" d="m251.5,90.6c.2,0,.5-.2.5-.4,1-3.7,4.9-5.2,4.9-5.2.3-.1.4-.4.3-.7-.1-.3-.4-.4-.7-.3-.2,0-4.4,1.7-5.6,6,0,.3,0,.6.4.7,0,0,.1,0,.2,0Z"/>
                <path class="c" d="m255.4,88.8c.1,0,.2,0,.3,0,.3-.2.3-.5.2-.8,0,0-.7-1.1-2.1-1.7-.3-.1-.6,0-.8.3-.1.3,0,.6.3.8,1.1.5,1.6,1.3,1.6,1.3.1.2.3.3.5.3Z"/>
            </g>
            <g>
                <path class="e" d="m213.4,82.1s-3.7-4.9-6.4-.9c-2.7,4.1,1.1,16.1,7.9,13.2l-1.4-12.3Z"/>
                <path class="c" d="m213.4,90.6c-.2,0-.5-.2-.5-.4-1-3.7-4.9-5.2-4.9-5.2-.3-.1-.4-.4-.3-.7.1-.3.4-.4.7-.3.2,0,4.4,1.7,5.6,6,0,.3,0,.6-.4.7,0,0-.1,0-.2,0Z"/>
                <path class="c" d="m209.5,88.8c-.1,0-.2,0-.3,0-.3-.2-.3-.5-.2-.8,0,0,.7-1.1,2.1-1.7.3-.1.6,0,.8.3.1.3,0,.6-.3.8-1.1.5-1.6,1.3-1.6,1.3-.1.2-.3.3-.5.3Z"/>
            </g>
            <path class="l" d="m223.3,104.6v12s3.6,6.1,8.4,6.5c4.8.4,9.1-5.2,9.1-5.2v-12.4l-17.5-.8Z"/>
            <path class="e" d="m223.3,104.6v5.3c3.2,3.6,9,4.5,17.5,3.2v-7.7l-17.5-.8Z"/>
            <path class="l" d="m210.7,73.9c.2,4.6.7,10.5,1.5,15.1h0s0,0,0,0c0,0,0,0,0,0,.2,1.1.5,2.2.7,3.2.2.6.3,1.2.5,1.8,2.8,8.9,9.4,21.8,25.9,15.9,6.9-2.5,10.6-9.7,12.4-17.4.1-.5.2-.9.3-1.4,0-.3.1-.6.2-.9v-.4c0,0,.1-.1.1-.2,0,0,0,0,0,0,1.1-6,1.3-12,1.2-16.4,0-4.4-2.5-8.4-6.3-10.6-10.4-5.9-21.4-3.7-28.6-.9-5,1.9-8.2,6.8-8,12.2Z"/>
            <path class="j" d="m212.3,89s0,0,0,0c0,0,0,0,0,0,0,0,0,0,0,0,.1.4.7,2.5,1.3,4.9,2.8,8.9,9.4,21.8,25.9,15.9,6.9-2.5,10.6-9.7,12.4-17.4.1-.5.2-.9.3-1.4,0-.3.1-.6.2-.9v-.4c0,0,.1-.1.1-.2,0,0,0,0,0,0l-2.4-.5c-.5,2.3-1.5,4.5-2.7,6.4-2.1-4.9-12.5-1.7-12.5-1.7h0c-.6.2-1.3.3-1.9.3s-1.3-.1-2-.3c0,0-10.3-3.4-12.4,1.3-2.1-3.3-3.6-6.3-3.6-6.3l-2.5.2h0Zm20.5,7.1c11.8-1.6,9.9,4.8,9.9,4.8-1.3,1.2-2.5,2.1-3.3,2.5-2.6,1.4-5.1,2-6.9,1.9-1.8,0-2.3.3-6.9-2.2-.8-.4-1.6-1.1-2.4-1.8h0c-.2-1.2-2.2-7.2,9.6-5.1Z"/>
            <path class="j" d="m222.1,82.5c0,1.3.7,2.3,1.5,2.3s1.5-1,1.5-2.3-.7-2.3-1.5-2.3-1.5,1-1.5,2.3Z"/>
            <path class="j" d="m240.5,82.5c0,1.3.7,2.3,1.5,2.3s1.5-1,1.5-2.3-.7-2.3-1.5-2.3-1.5,1-1.5,2.3Z"/>
            <path class="j" d="m218.4,74.7s6.1-2.4,10.7-.4l-.5,2.6s-6.9-.6-10.3.8c-.3-1-.4-2,0-3Z"/>
            <path class="j" d="m247.2,74.7s-6.1-2.4-10.8-.4l.5,2.6s6.9-.6,10.4.8c.3-1,.4-2,0-3.1Z"/>
            <path class="e" d="m232.2,92.8c-1,0-1.9-.4-2.1-.4-.3-.1-.4-.4-.3-.7.1-.3.5-.4.7-.3.5.2,1.7.5,2.3.2.1,0,.2-.2.3-.5.2-2-.3-8.6-.3-8.7,0-.3.2-.6.5-.6.3,0,.6.2.6.5,0,.3.6,6.8.3,8.9,0,.8-.5,1.2-.8,1.4-.4.2-.8.3-1.2.3Z"/>
            <path class="i" d="m239.5,97.2c-.4,2.2-1.9,6.2-6.7,6.2s-6.2-3.6-6.7-6.2h13.4Z"/>
            <path class="j" d="m210.7,73.9c.2,4.6.7,10.5,1.6,15.1l2.5-.2s-.6-3.9-.9-6.5c-.3-2.6-.8-7.3,1.4-7.9,2.2-.6.9-6,3.9-8.4,3-2.4,9.8-3,14.3-.3,4.5,2.7,9.5-.2,11.6.3,2.1.5,4.9,3.3,4.1,6-.8,2.6,1.5,4.3,2.1,7,.6,2.7-1.2,10.1-1.2,10.1l2.4.5c1.1-6,1.3-12,1.2-16.4,0-4.4-2.5-8.4-6.3-10.6-10.4-5.9-21.4-3.7-28.6-.9-5,1.9-8.2,6.9-8,12.2Z"/>
        </g>
    </g>
    <g>
        <g>
            <path class="b" d="m315.3,201.8c-1.5,14.1-10.7,45.5-17.1,51.7-8.3,8-35.6,24.9-49.8,33.6-2.6,1.6,9.5,12,9.5,12,0,0,37.7-16.1,52.1-28.8,4.1-3.6,12.3-14.9,21.7-36.6,2.8-6.6,9.7-19.8,9.3-28.4-.4-9.9-16.2-8.3-25.8-3.4Z"/>
            <path class="l" d="m285.8,282.7s-10.3,3.9-13.9,8.2c-3.6,4.3-8.4,7.9-7.3,9.6,1.2,1.7,6.5-3.2,6.5-3.2,0,0,1.5,5.4,6.6,6s14.9-9.5,14.9-9.5l-6.9-11Z"/>
            <g>
                <g>
                    <path class="k" d="m387.1,241.1c0,.9,0,1.9,0,3.1,0,1.2,0,2.5,0,4,0,1,0,2,0,3.2,0,.9,0,1.9-.1,2.9,0,1,0,2.1-.1,3.2-.7,14.7-2.4,35.1-6.2,51.4h-79.8c2.7-11.9,6.7-30.6,10-54.9.1-1,.3-2.1.4-3.1.1-1,.3-2.1.4-3.2,0-.6.1-1.1.2-1.7,0-.5.1-.9.2-1.4.1-1.3.3-2.6.4-3.9.1-1.1.2-2.1.3-3.1,1.4-16.3.9-28.6,2.9-35.9,2.3-8.5,29-18.3,29-18.3l16.7.9s16,5.2,24.5,12.7c8.5,7.5,1.4,29.8,1.6,42.5,0,.4,0,.9,0,1.5Z"/>
                    <path class="m" d="m387.1,244.3c-7.3.9-14.8,1.2-22.3,1.2-24.3,0-47.2-3.7-52.7-4.7.1-1.1.2-2.1.3-3.1,6.4,1.1,43.6,7.3,74.7,3.4,0,.9,0,1.9,0,3.1Z"/>
                    <path class="m" d="m387,248.2c0,1,0,2,0,3.2-7.2.9-14.7,1.2-22.1,1.2-25.7,0-49.7-4.2-53.5-4.8,0-.6.1-1.1.2-1.7,0-.5.1-.9.2-1.4,3.7.7,42.8,7.6,75.3,3.6Z"/>
                    <path class="m" d="m386.8,254.3c0,1,0,2.1-.1,3.2-7.5,1-15.3,1.3-23,1.3-24.9,0-48.2-3.9-53.1-4.7.1-1,.3-2.1.4-3.1,5.8,1,44.2,7.5,75.8,3.4Z"/>
                    <path class="b" d="m349.1,199.5c8.3,0,16-8.8,16.3-9.2.2-.2.2-.6,0-.8-.2-.2-.6-.2-.8,0,0,0-8.1,9.4-16.2,8.8-.3,0-.6.2-.6.5,0,.3.2.6.5.6.3,0,.5,0,.8,0Z"/>
                    <path class="b" d="m356.3,299c.3,0,.5-.2.6-.5,0-.3-.2-.6-.5-.7-21.5-2.5-30.4-39.7-30.5-40.1,0-.3-.4-.5-.7-.4-.3,0-.5.4-.4.7.4,1.6,9.2,38.4,31.5,41,0,0,0,0,0,0Z"/>
                    <path class="b" d="m347.7,287.7c.2,0,.4,0,.5-.3.2-.3,0-.6-.2-.8-11.4-7-13.1-17.4-13.1-17.5,0-.3-.3-.5-.7-.5-.3,0-.5.3-.5.7,0,.4,1.8,11,13.7,18.4,0,0,.2,0,.3,0Z"/>
                </g>
                <g>
                    <circle class="j" cx="354.4" cy="144.8" r="23.5"/>
                    <path class="j" d="m331.3,140.6s-6.7-1.8-5.8-8.3c.7-5.5,7.2-1.9,6.6-6.2-.6-4.3-1.8-8.2,3.7-9.3,4.9-.9,5,2.4,11.3-2.4,7.6-5.7,13.4,7.5,20.1,7.9,9.9.6,11.2,6.2,12.2,10.7,1,4.5-2.9,7.7-2.9,7.7h-45.4Z"/>
                    <g>
                        <path class="e" d="m334.8,151.4s-3.7-5-6.5-.9c-2.8,4.1,1.1,16.3,7.9,13.3l-1.4-12.4Z"/>
                        <path class="c" d="m334.8,160.1c-.3,0-.5-.2-.6-.4-1.1-3.7-4.9-5.3-5-5.3-.3-.1-.4-.4-.3-.7.1-.3.4-.4.7-.3.2,0,4.5,1.7,5.7,6,0,.3,0,.6-.4.7,0,0-.1,0-.2,0Z"/>
                        <path class="c" d="m330.9,158.2c-.1,0-.2,0-.3,0-.3-.2-.3-.5-.2-.8,0,0,.7-1.1,2.2-1.7.3-.1.6,0,.8.3.1.3,0,.6-.3.8-1.1.5-1.7,1.3-1.7,1.3-.1.2-.3.3-.5.3Z"/>
                    </g>
                    <path class="l" d="m361.9,174.1v12.1s-5,5.3-9.8,5.7c-4.9.4-7.8-5.4-7.8-5.4v-11.6l17.7-.8Z"/>
                    <path class="e" d="m361.9,174.1v5.4c-3.3,3.6-9.1,4.5-17.7,3.3v-7.8l17.7-.8Z"/>
                    <path class="l" d="m374.6,143.1c-.2,4.7-.7,10.6-1.6,15.3-.2,1.2-.5,2.3-.8,3.3-2.5,8.9-8.9,24.2-26.7,17.8-7.9-2.8-11.5-11.6-13.1-20.5-1.1-6-1.3-12.2-1.2-16.5,0-4.5,2.5-8.5,6.4-10.7,10.5-6,21.6-3.7,28.9-.9,5.1,1.9,8.3,6.9,8.1,12.3Z"/>
                    <g>
                        <path class="j" d="m353.3,151.6v1c0,1.9.7,3.7,2.1,5.1,1.3,1.3,3.1,2.1,5,2.1h.2c1.6,0,3.1-.7,4.4-2,1.3-1.3,2.1-3.1,2.1-5v-1.1c0-.3,0-.6-.2-.9-.1-.3-.3-.6-.6-.9-.5-.5-1.1-.7-1.8-.7h-8.8c-1,0-1.9.6-2.3,1.4-.1.3-.2.7-.2,1,0,0,0,0,0,0Zm1,0c0-.8.7-1.5,1.5-1.5h8.8c.8,0,1.5.7,1.5,1.5v1.1c0,1.6-.6,3.2-1.7,4.3-1.1,1.1-2.4,1.6-3.7,1.7h-.2c-1.6,0-3.1-.6-4.3-1.8-1.2-1.2-1.8-2.7-1.8-4.3v-1Z"/>
                        <path class="j" d="m335.6,151.6v1c0,1.9.8,3.7,2.1,5.1,1.3,1.3,3.1,2.1,5,2.1h.2c1.6,0,3.1-.7,4.4-2,1.3-1.3,2.1-3.1,2.1-5v-1.1s0,0,0,0c0-.3,0-.7-.2-1-.4-.9-1.3-1.5-2.3-1.5h-8.8c-.8,0-1.5.4-1.9.9-.2.3-.4.6-.5.9,0,.2,0,.4,0,.7Zm1,0c0-.8.7-1.5,1.5-1.5h8.8c.8,0,1.5.7,1.5,1.5v1.1c0,1.6-.6,3.2-1.7,4.3-1.1,1.1-2.4,1.6-3.7,1.7h-.2c-1.6,0-3.1-.6-4.3-1.8-1.2-1.2-1.8-2.7-1.8-4.3v-1Z"/>
                        <path class="j" d="m373.4,148.7c-3-.1-5.1.7-6,1.2-.2.1-.9.5-.9.5l.5.9s.7-.4,1-.5c.8-.4,2.7-1.2,5.4-1v-1Z"/>
                        <path class="j" d="m354,151.7l.3-1c0,0-1.5-.5-3.1-.5s-2.8.5-2.9.5l.5.9s.9-.4,2.4-.4,2.8.5,2.8.5Z"/>
                        <path class="j" d="m332,149v1c2.2.2,4.1,1.1,4.2,1.2l.5-.9c-.1,0-2.3-1.1-4.6-1.3Z"/>
                    </g>
                    <path class="j" d="m343.8,153c0,1.3-.7,2.3-1.5,2.3s-1.5-1-1.5-2.3.7-2.3,1.5-2.3,1.5,1,1.5,2.3Z"/>
                    <path class="j" d="m361.2,153c0,1.3-.7,2.3-1.5,2.3s-1.5-1-1.5-2.3.7-2.3,1.5-2.3,1.5,1,1.5,2.3Z"/>
                    <path class="j" d="m337.5,145.8s6.2-2.4,10.9-.4l-.4,2.2s-5.2-1.2-10.2.7c-.3-1-.7-1.5-.3-2.6Z"/>
                    <path class="j" d="m365.7,145.8s-6.2-2.4-10.9-.4l.4,2.2s5.2-1.2,10.2.7c.3-1,.7-1.5.3-2.6Z"/>
                    <path class="e" d="m351.9,162.8c1,0,1.9-.4,2.1-.4.3-.1.4-.5.3-.7-.1-.3-.5-.4-.7-.3-.5.2-1.8.5-2.3.2-.1,0-.2-.2-.3-.5-.2-2,.3-8.7.3-8.8,0-.3-.2-.6-.5-.6-.3,0-.6.2-.6.5,0,.3-.6,6.9-.3,9,0,.8.5,1.2.8,1.4.4.2.8.3,1.2.3Z"/>
                    <path class="i" d="m344.8,165.7c.5,2.4,2,6.7,7.3,6.7s6.7-4,7.2-6.7h-14.5Z"/>
                    <path class="e" d="m352,175.4c1.5,0,2.7-.8,2.8-.8.3-.2.4-.5.2-.8-.2-.3-.5-.4-.8-.2,0,0-1,.6-2.2.6s-2.1-.6-2.1-.6c-.3-.2-.6,0-.8.2-.2.3,0,.6.2.8,0,0,1.3.8,2.7.8Z"/>
                    <path class="j" d="m334.2,155.2c-.4-2.4-.9-5.4-.6-7,.6-2.8,2.9-4.4,2.1-7.1-.8-2.7,2.1-5.6,4.1-6,2.1-.5,6.9.6,11.7-1.7,4.6-2.2,12.5-.6,13.8,2.3,1.6,3.5-.6,3.9,3.7,7.7,1.7,1.5-.3,5.5-.6,8.1-.1,1.2-.1,1.8-.1,3v.6h5.1c.6-4,.9-8.4,1.1-12.1.3-5.4-3-10.4-8.1-12.3-7.3-2.8-18.4-5-28.9.9-3.9,2.2-6.3,6.3-6.4,10.7,0,3.5,0,8,.6,12.8h2.3Z"/>
                    <g>
                        <path class="l" d="m371.3,157.4c0-1.3,0-2.7.3-4,.3-1.8.8-3.4,2.7-4.2,1.5-.6,3.1-.6,4.2,1.1,2.8,4.1-.3,16.9-7.1,13.9v-6.8Z"/>
                        <path class="e" d="m372.7,160.5c.2,0,.4-.3.5-.5.3-3.9,3.8-6.1,3.8-6.2.3-.2.3-.5.2-.8-.2-.3-.5-.3-.8-.2-.2.1-4,2.6-4.4,7,0,.3.2.6.5.6,0,0,.1,0,.2,0Z"/>
                        <path class="e" d="m376.2,157.9c.1,0,.2,0,.3-.2.2-.2.2-.6,0-.8,0,0-.9-.9-2.5-1.3-.3,0-.6.1-.7.4,0,.3.1.6.4.7,1.2.3,1.9,1,1.9,1,.1.1.3.2.5.2Z"/>
                    </g>
                </g>
            </g>
            <path class="b" d="m382.1,194.4c-8.4,12.7-40.5,56.7-47.7,61.8-9.4,6.6-35.1,16.1-49.9,25.9-5,3.3,6.8,12.8,6.8,12.8,0,0,36-10.1,52.2-20.5,4.6-2.9,23.6-22,35.8-38.9,4.2-5.8,10.9-13.9,11.9-22.4,1.1-9.9-2-15.1-9.1-18.7Z"/>
        </g>
        <g>
            <path class="g" d="m218.5,296.3h100c1.3,0,2.3,1,2.3,2.3v8c0,1.3-1,2.3-2.3,2.3h-100c-1.3,0-2.3-1-2.3-2.3v-8c0-1.3,1-2.3,2.3-2.3Z"/>
            <path class="j" d="m216.2,308.9l-19.7-73.6c-1.1-4.1,2-8.2,6.3-8.2h43.3c2.9,0,5.5,1.9,6.3,4.8l21.7,77.1h-57.8Z"/>
            <path class="g" d="m252.4,231.8l21.5,76.4h4.9l-21.5-76.4c-.8-2.8-3.4-4.8-6.3-4.8h-4.9c2.9,0,5.5,1.9,6.3,4.8Z"/>
            <path class="h" d="m241.3,271.2c1.1,4.9-1.9,8.8-6.8,8.8s-9.7-3.9-10.8-8.8c-1.1-4.9,1.9-8.8,6.8-8.8s9.7,3.9,10.8,8.8Z"/>
        </g>
    </g>
    <g>
        <g>
            <path class="b" d="m375.3,37.6c-3.6,0-6.6-3-6.6-6.6s3-6.6,6.6-6.6,6.6,3,6.6,6.6-3,6.6-6.6,6.6Zm0-11.1c-2.5,0-4.5,2-4.5,4.5s2,4.5,4.5,4.5,4.5-2,4.5-4.5-2-4.5-4.5-4.5Z"/>
            <path class="k" d="m399.1,60.8c-3.6,0-6.6-3-6.6-6.6s3-6.6,6.6-6.6,6.6,3,6.6,6.6-3,6.6-6.6,6.6Zm0-11.1c-2.5,0-4.5,2-4.5,4.5s2,4.5,4.5,4.5,4.5-2,4.5-4.5-2-4.5-4.5-4.5Z"/>
            <g>
                <g>
                    <path class="b" d="m407.3,82.3c-.6,0-1-.5-1-1v-4.6c0-.6.5-1,1-1s1,.5,1,1v4.6c0,.6-.5,1-1,1Z"/>
                    <path class="b" d="m407.3,90.3c-.6,0-1-.5-1-1v-4.6c0-.6.5-1,1-1s1,.5,1,1v4.6c0,.6-.5,1-1,1Z"/>
                </g>
                <g>
                    <path class="b" d="m413.7,84h-4.1c-.6,0-1-.5-1-1s.5-1,1-1h4.1c.6,0,1,.5,1,1s-.5,1-1,1Z"/>
                    <path class="b" d="m404.9,84h-4.1c-.6,0-1-.5-1-1s.5-1,1-1h4.1c.6,0,1,.5,1,1s-.5,1-1,1Z"/>
                </g>
            </g>
            <g>
                <g>
                    <path class="d" d="m370.8,56.7c-.6,0-1-.5-1-1v-4.6c0-.6.5-1,1-1s1,.5,1,1v4.6c0,.6-.5,1-1,1Z"/>
                    <path class="d" d="m370.8,64.7c-.6,0-1-.5-1-1v-4.6c0-.6.5-1,1-1s1,.5,1,1v4.6c0,.6-.5,1-1,1Z"/>
                </g>
                <g>
                    <path class="d" d="m377.2,58.4h-4.1c-.6,0-1-.5-1-1s.5-1,1-1h4.1c.6,0,1,.5,1,1s-.5,1-1,1Z"/>
                    <path class="d" d="m368.5,58.4h-4.1c-.6,0-1-.5-1-1s.5-1,1-1h4.1c.6,0,1,.5,1,1s-.5,1-1,1Z"/>
                </g>
            </g>
        </g>
        <g>
            <path class="b" d="m68.9,7.3c0-3.6,3-6.6,6.6-6.6s6.6,3,6.6,6.6-3,6.6-6.6,6.6-6.6-3-6.6-6.6Zm2.1,0c0,2.5,2,4.5,4.5,4.5s4.5-2,4.5-4.5-2-4.5-4.5-4.5-4.5,2-4.5,4.5Z"/>
            <path class="k" d="m42.4,32.5c0-3.6,3-6.6,6.6-6.6s6.6,3,6.6,6.6-3,6.6-6.6,6.6-6.6-3-6.6-6.6Zm2.1,0c0,2.5,2,4.5,4.5,4.5s4.5-2,4.5-4.5-2-4.5-4.5-4.5-4.5,2-4.5,4.5Z"/>
            <g>
                <g>
                    <path class="b" d="m28.6,41.8c.6,0,1-.5,1-1v-4.6c0-.6-.5-1-1-1s-1,.5-1,1v4.6c0,.6.5,1,1,1Z"/>
                    <path class="b" d="m28.6,49.7c.6,0,1-.5,1-1v-4.6c0-.6-.5-1-1-1s-1,.5-1,1v4.6c0,.6.5,1,1,1Z"/>
                </g>
                <g>
                    <path class="b" d="m22.2,43.5h4.1c.6,0,1-.5,1-1s-.5-1-1-1h-4.1c-.6,0-1,.5-1,1s.5,1,1,1Z"/>
                    <path class="b" d="m30.9,43.5h4.1c.6,0,1-.5,1-1s-.5-1-1-1h-4.1c-.6,0-1,.5-1,1s.5,1,1,1Z"/>
                </g>
            </g>
            <g>
                <g>
                    <path class="d" d="m52.5,6.6c.6,0,1-.5,1-1V1c0-.6-.5-1-1-1s-1,.5-1,1v4.6c0,.6.5,1,1,1Z"/>
                    <path class="d" d="m52.5,14.6c.6,0,1-.5,1-1v-4.6c0-.6-.5-1-1-1s-1,.5-1,1v4.6c0,.6.5,1,1,1Z"/>
                </g>
                <g>
                    <path class="d" d="m46.1,8.4h4.1c.6,0,1-.5,1-1s-.5-1-1-1h-4.1c-.6,0-1,.5-1,1s.5,1,1,1Z"/>
                    <path class="d" d="m54.8,8.4h4.1c.6,0,1-.5,1-1s-.5-1-1-1h-4.1c-.6,0-1,.5-1,1s.5,1,1,1Z"/>
                </g>
            </g>
        </g>
        <g>
            <path class="k" d="m323.6,14.3v20.1c0,2.7-2.2,4.8-4.8,4.8h-36.5l-11,4c-1.1.4-2.2-.7-1.8-1.8l4.2-10.8V14.3c0-2.7,2.2-4.8,4.8-4.8h40.3c2.7,0,4.8,2.2,4.8,4.8Z"/>
            <g class="n">
                <path class="m" d="m315.9,20h-33.5c-.7,0-1.3-.6-1.3-1.3h0c0-.7.6-1.3,1.3-1.3h33.5c.7,0,1.3.6,1.3,1.3h0c0,.7-.6,1.3-1.3,1.3Z"/>
                <path class="m" d="m315.9,25.4h-33.5c-.7,0-1.3-.6-1.3-1.3h0c0-.7.6-1.3,1.3-1.3h33.5c.7,0,1.3.6,1.3,1.3h0c0,.7-.6,1.3-1.3,1.3Z"/>
                <path class="m" d="m315.9,30.7h-33.5c-.7,0-1.3-.6-1.3-1.3h0c0-.7.6-1.3,1.3-1.3h33.5c.7,0,1.3.6,1.3,1.3h0c0,.7-.6,1.3-1.3,1.3Z"/>
            </g>
        </g>
    </g>
    <g>
        <path class="d" d="m34.4,308.9h389.4c4.1,0,7.5,3.4,7.5,7.5v.7c0,4.1-3.4,7.5-7.5,7.5H34.4c-4.1,0-7.5-3.4-7.5-7.5v-.7c0-4.1,3.4-7.5,7.5-7.5Z"/>
        <path class="b" d="m431.3,316.4v.4H26.9v-.4c0-4.1,3.4-7.5,7.5-7.5h389.4c4.1,0,7.5,3.4,7.5,7.5Z"/>
    </g>
</svg>