<svg width="24" height="24" viewBox="0 0 24 24" fill="none" xmlns="http://www.w3.org/2000/svg">
    <rect width="24" height="24" rx="3" fill="#D3D3D3" fill-opacity="0.7"/>
    <path d="M16.2857 10.9286H13.0714V7.71429C13.0714 7.31987 12.7516 7 12.3571 7H11.6429C11.2484 7 10.9286 7.31987 10.9286 7.71429V10.9286H7.71429C7.31987 10.9286 7 11.2484 7 11.6429V12.3571C7 12.7516 7.31987 13.0714 7.71429 13.0714H10.9286V16.2857C10.9286 16.6801 11.2484 17 11.6429 17H12.3571C12.7516 17 13.0714 16.6801 13.0714 16.2857V13.0714H16.2857C16.6801 13.0714 17 12.7516 17 12.3571V11.6429C17 11.2484 16.6801 10.9286 16.2857 10.9286Z" fill="black" fill-opacity="0.7"/>
</svg>
