<svg width="10" height="18" viewBox="0 0 10 18" fill="none" xmlns="http://www.w3.org/2000/svg">
    <path d="M7.26418 8.10591L3.51338 7.00845C3.07926 6.88342 2.77711 6.47709 2.77711 6.0256C2.77711 5.45951 3.23554 5.00107 3.80164 5.00107H6.10421C6.52792 5.00107 6.94467 5.12957 7.29197 5.36574C7.50382 5.50813 7.7886 5.4734 7.9692 5.29628L9.17779 4.11547C9.42437 3.87583 9.38964 3.47644 9.11528 3.26459C8.2644 2.59778 7.20167 2.22617 6.11116 2.2227V0.555675C6.11116 0.250054 5.8611 0 5.55548 0H4.44413C4.13851 0 3.88846 0.250054 3.88846 0.555675V2.2227H3.80164C1.58935 2.2227 -0.188806 4.12241 0.0160996 6.37637C0.161964 7.97741 1.38445 9.27977 2.92645 9.73126L6.48624 10.7731C6.92036 10.9016 7.22251 11.3045 7.22251 11.756C7.22251 12.3221 6.76408 12.7805 6.19798 12.7805H3.89541C3.4717 12.7805 3.05495 12.652 2.70765 12.4159C2.4958 12.2735 2.21102 12.3082 2.03042 12.4853L0.821828 13.6661C0.575247 13.9058 0.609977 14.3052 0.884342 14.517C1.73522 15.1838 2.79795 15.5554 3.88846 15.5589V17.2259C3.88846 17.5315 4.13851 17.7816 4.44413 17.7816H5.55548C5.8611 17.7816 6.11116 17.5315 6.11116 17.2259V15.552C7.72956 15.5207 9.24725 14.5587 9.78209 13.0271C10.5288 10.8878 9.27503 8.69284 7.26418 8.10591Z" fill="#D61616"/>
</svg>
