<svg width="24" height="24" viewBox="0 0 24 24" fill="none" xmlns="http://www.w3.org/2000/svg">
    <rect width="24" height="24" rx="3" fill="#FC6C7E"/>
    <path d="M7.71429 16.0625C7.71429 16.3111 7.82717 16.5496 8.0281 16.7254C8.22903 16.9012 8.50155 17 8.78571 17H15.2143C15.4984 17 15.771 16.9012 15.9719 16.7254C16.1728 16.5496 16.2857 16.3111 16.2857 16.0625V9.5H7.71429V16.0625ZM13.7857 11.0625C13.7857 10.9796 13.8233 10.9001 13.8903 10.8415C13.9573 10.7829 14.0481 10.75 14.1429 10.75C14.2376 10.75 14.3284 10.7829 14.3954 10.8415C14.4624 10.9001 14.5 10.9796 14.5 11.0625V15.4375C14.5 15.5204 14.4624 15.5999 14.3954 15.6585C14.3284 15.7171 14.2376 15.75 14.1429 15.75C14.0481 15.75 13.9573 15.7171 13.8903 15.6585C13.8233 15.5999 13.7857 15.5204 13.7857 15.4375V11.0625ZM11.6429 11.0625C11.6429 10.9796 11.6805 10.9001 11.7475 10.8415C11.8144 10.7829 11.9053 10.75 12 10.75C12.0947 10.75 12.1856 10.7829 12.2525 10.8415C12.3195 10.9001 12.3571 10.9796 12.3571 11.0625V15.4375C12.3571 15.5204 12.3195 15.5999 12.2525 15.6585C12.1856 15.7171 12.0947 15.75 12 15.75C11.9053 15.75 11.8144 15.7171 11.7475 15.6585C11.6805 15.5999 11.6429 15.5204 11.6429 15.4375V11.0625ZM9.5 11.0625C9.5 10.9796 9.53763 10.9001 9.6046 10.8415C9.67158 10.7829 9.76242 10.75 9.85714 10.75C9.95186 10.75 10.0427 10.7829 10.1097 10.8415C10.1767 10.9001 10.2143 10.9796 10.2143 11.0625V15.4375C10.2143 15.5204 10.1767 15.5999 10.1097 15.6585C10.0427 15.7171 9.95186 15.75 9.85714 15.75C9.76242 15.75 9.67158 15.7171 9.6046 15.6585C9.53763 15.5999 9.5 15.5204 9.5 15.4375V11.0625ZM16.6429 7.625H13.9643L13.7545 7.25977C13.71 7.18169 13.6416 7.116 13.5568 7.07011C13.472 7.02422 13.3742 6.99994 13.2746 7H10.7232C10.6237 6.99967 10.5262 7.02386 10.4417 7.0698C10.3572 7.11574 10.2892 7.18158 10.2455 7.25977L10.0357 7.625H7.35714C7.26242 7.625 7.17158 7.65793 7.1046 7.71653C7.03763 7.77514 7 7.85462 7 7.9375V8.5625C7 8.64538 7.03763 8.72487 7.1046 8.78347C7.17158 8.84208 7.26242 8.875 7.35714 8.875H16.6429C16.7376 8.875 16.8284 8.84208 16.8954 8.78347C16.9624 8.72487 17 8.64538 17 8.5625V7.9375C17 7.85462 16.9624 7.77514 16.8954 7.71653C16.8284 7.65793 16.7376 7.625 16.6429 7.625Z" fill="white"/>
</svg>
