<svg width="30" height="30" viewBox="0 0 14 14" fill="none" xmlns="http://www.w3.org/2000/svg">
    <path d="M8.69089 0.50845C8.7015 0.515591 8.71972 0.530511 8.74223 0.55976C8.74237 0.559932 8.7425 0.560105 8.74263 0.560278L13.407 6.68094C13.4072 6.6812 13.4074 6.68146 13.4076 6.68173C13.5308 6.84611 13.5308 7.15307 13.4076 7.31747C13.4074 7.31775 13.4072 7.31802 13.407 7.31829L8.74166 13.4402C8.71927 13.4696 8.70114 13.4845 8.69063 13.4916C8.68042 13.4985 8.67508 13.4997 8.67457 13.4998C8.67439 13.4999 8.67418 13.4999 8.67392 13.5C8.67333 13.5 8.67246 13.5 8.67084 13.4998C8.66814 13.4994 8.66129 13.4979 8.65071 13.4922C8.60867 13.4695 8.5004 13.3666 8.5004 13.1236V9.62418V9.12418H8.0004H4.22243C4.22037 9.12418 4.21523 9.12412 4.20436 9.11811C4.19218 9.11137 4.17156 9.09612 4.14822 9.06549C4.10029 9.00259 4.05573 8.8929 4.05573 8.74932V5.2499C4.05573 5.10632 4.10029 4.99663 4.14822 4.93373C4.17156 4.90311 4.19218 4.88786 4.20436 4.88112C4.21523 4.87511 4.22037 4.87505 4.22243 4.87505H8.0004H8.5004V4.37505V0.87563C8.5004 0.634414 8.6081 0.530925 8.65061 0.507914C8.66123 0.502161 8.66811 0.500624 8.6708 0.500209C8.67312 0.499851 8.67391 0.50003 8.67453 0.50017L8.67455 0.500175L8.67457 0.500178C8.67517 0.500313 8.6806 0.501532 8.69089 0.50845ZM4.8336 12.1655V13.4985H2.6668C2.12 13.4985 1.58928 13.2086 1.17897 12.6702C0.76839 12.1314 0.5 11.3653 0.5 10.499V3.50019C0.5 2.6339 0.76839 1.86783 1.17897 1.32906C1.58928 0.79065 2.12 0.500775 2.6668 0.500775H4.8336V1.83372H2.6668C2.23218 1.83372 1.87382 2.06547 1.64026 2.37194C1.40717 2.67781 1.27787 3.07833 1.27787 3.50019V10.499C1.27787 10.9209 1.40717 11.3214 1.64026 11.6273C1.87382 11.9338 2.23218 12.1655 2.6668 12.1655H4.8336Z" stroke="black" stroke-opacity="0.5"/>
</svg>
