<svg width="24" height="24" viewBox="0 0 24 24" fill="none" xmlns="http://www.w3.org/2000/svg">
    <g filter="url(#filter0_i_429_2)">
        <circle cx="12" cy="12" r="12" fill="#F8BD32"/>
    </g>
    <path d="M17.1429 10.7143H13.2857V6.85714C13.2857 6.38384 12.9019 6 12.4286 6H11.5714C11.0981 6 10.7143 6.38384 10.7143 6.85714V10.7143H6.85714C6.38384 10.7143 6 11.0981 6 11.5714V12.4286C6 12.9019 6.38384 13.2857 6.85714 13.2857H10.7143V17.1429C10.7143 17.6162 11.0981 18 11.5714 18H12.4286C12.9019 18 13.2857 17.6162 13.2857 17.1429V13.2857H17.1429C17.6162 13.2857 18 12.9019 18 12.4286V11.5714C18 11.0981 17.6162 10.7143 17.1429 10.7143Z" fill="white"/>
    <defs>
        <filter id="filter0_i_429_2" x="0" y="-4" width="24" height="28" filterUnits="userSpaceOnUse" color-interpolation-filters="sRGB">
            <feFlood flood-opacity="0" result="BackgroundImageFix"/>
            <feBlend mode="normal" in="SourceGraphic" in2="BackgroundImageFix" result="shape"/>
            <feColorMatrix in="SourceAlpha" type="matrix" values="0 0 0 0 0 0 0 0 0 0 0 0 0 0 0 0 0 0 127 0" result="hardAlpha"/>
            <feOffset dy="-4"/>
            <feGaussianBlur stdDeviation="2"/>
            <feComposite in2="hardAlpha" operator="arithmetic" k2="-1" k3="1"/>
            <feColorMatrix type="matrix" values="0 0 0 0 0.980392 0 0 0 0 0.294118 0 0 0 0 0.196078 0 0 0 1 0"/>
            <feBlend mode="normal" in2="shape" result="effect1_innerShadow_429_2"/>
        </filter>
    </defs>
</svg>
