<svg id="visual" viewBox="0 0 900 600" width="900" height="600" xmlns="http://www.w3.org/2000/svg" xmlns:xlink="http://www.w3.org/1999/xlink" version="1.1"><rect x="0" y="0" width="900" height="600" fill="#F2F2F2"></rect><path d="M0 106L25 98.2C50 90.3 100 74.7 150 65.3C200 56 250 53 300 71C350 89 400 128 450 158.3C500 188.7 550 210.3 600 199.5C650 188.7 700 145.3 750 138.5C800 131.7 850 161.3 875 176.2L900 191L900 601L875 601C850 601 800 601 750 601C700 601 650 601 600 601C550 601 500 601 450 601C400 601 350 601 300 601C250 601 200 601 150 601C100 601 50 601 25 601L0 601Z" fill="#def2b3"></path><path d="M0 367L25 354.5C50 342 100 317 150 321C200 325 250 358 300 366.8C350 375.7 400 360.3 450 363C500 365.7 550 386.3 600 381.3C650 376.3 700 345.7 750 339.7C800 333.7 850 352.3 875 361.7L900 371L900 601L875 601C850 601 800 601 750 601C700 601 650 601 600 601C550 601 500 601 450 601C400 601 350 601 300 601C250 601 200 601 150 601C100 601 50 601 25 601L0 601Z" fill="#9fcb65"></path><path d="M0 476L25 487.8C50 499.7 100 523.3 150 523.5C200 523.7 250 500.3 300 496.2C350 492 400 507 450 485.3C500 463.7 550 405.3 600 382.7C650 360 700 373 750 404.3C800 435.7 850 485.3 875 510.2L900 535L900 601L875 601C850 601 800 601 750 601C700 601 650 601 600 601C550 601 500 601 450 601C400 601 350 601 300 601C250 601 200 601 150 601C100 601 50 601 25 601L0 601Z" fill="#55a605"></path></svg>